<svg width="690" height="266" viewBox="0 0 690 266" fill="none" xmlns="http://www.w3.org/2000/svg">
<path d="M0 215.208V172.442L107.228 3.51155H144.099V62.7063H122.277L54.6798 169.683V171.69H207.056V215.208H0ZM123.28 260.356V202.165L124.284 183.228V3.51155H175.201V260.356H123.28Z" fill="#F3DBDB"/>
<path d="M343.944 266C322.373 265.916 303.812 260.607 288.261 250.073C272.793 239.538 260.879 224.279 252.518 204.297C244.241 184.315 240.144 160.277 240.228 132.185C240.228 104.176 244.366 80.3058 252.643 60.5742C261.004 40.8427 272.918 25.835 288.386 15.5512C303.937 5.18372 322.456 0 343.944 0C365.431 0 383.909 5.18372 399.376 15.5512C414.927 25.9186 426.883 40.9681 435.244 60.6997C443.605 80.3476 447.743 104.176 447.66 132.185C447.66 160.361 443.479 184.44 435.119 204.422C426.841 224.405 414.969 239.663 399.501 250.198C384.034 260.733 365.515 266 343.944 266ZM343.944 220.977C358.659 220.977 370.406 213.578 379.185 198.779C387.964 183.98 392.311 161.782 392.228 132.185C392.228 112.704 390.221 96.4841 386.208 83.5248C382.278 70.5655 376.676 60.8251 369.402 54.3036C362.212 47.7822 353.726 44.5215 343.944 44.5215C329.312 44.5215 317.607 51.8372 308.828 66.4687C300.049 81.1001 295.618 103.006 295.535 132.185C295.535 151.916 297.499 168.387 301.429 181.597C305.442 194.724 311.086 204.59 318.36 211.195C325.634 217.716 334.162 220.977 343.944 220.977Z" fill="#F3DBDB"/>
<path d="M482.493 215.208V172.442L589.721 3.51155H626.592V62.7063H604.77L537.173 169.683V171.69H689.549V215.208H482.493ZM605.774 260.356V202.165L606.777 183.228V3.51155H657.694V260.356H605.774Z" fill="#F3DBDB"/>
</svg>
