<svg width="60" height="60" viewBox="0 0 60 60" fill="none" xmlns="http://www.w3.org/2000/svg">
<g clip-path="url(#clip0_703_1377)">
<path d="M13.3335 50.23C17.0835 54.8277 23.7502 55.6898 28.4724 52.2415L13.7502 34.5691C9.72239 38.8794 9.44462 45.6323 13.3335 50.23Z" fill="#012854"/>
<path d="M15.416 33.1323L29.9993 50.9484C34.0271 46.638 34.3049 39.8852 30.416 35.1438C26.666 30.4024 20.1382 29.684 15.416 33.1323Z" fill="#012854"/>
<path d="M19.1669 28.5346C22.9169 27.5288 27.0836 28.2472 30.2781 30.6898L44.8614 20.2012L36.8058 8.13228C33.3336 2.81619 26.2503 1.52308 21.1114 5.11504L18.6114 6.98285C13.4725 10.5748 12.2225 17.9024 15.6947 23.2185L19.1669 28.5346Z" fill="#012854"/>
<path d="M54.4449 34.7128L46.2504 22.5001L32.2227 32.5576C32.6393 32.9886 32.9171 33.4197 33.1949 33.8507C36.6671 38.7358 36.5282 45.2013 33.3338 49.9426C36.9449 55.1151 43.8893 56.4082 49.0282 52.8162L51.5282 50.9484C56.6671 47.3564 57.9171 40.0289 54.4449 34.7128Z" fill="#012854"/>
</g>
<defs>
<clipPath id="clip0_703_1377">
<rect width="60" height="60" fill="white"/>
</clipPath>
</defs>
</svg>
