<svg width="16" height="16" viewBox="0 0 16 16" fill="none" xmlns="http://www.w3.org/2000/svg">
<g id="icons/location">
<path id="Vector" d="M13.3327 6.66659C13.3327 10.6666 7.99935 14.6666 7.99935 14.6666C7.99935 14.6666 2.66602 10.6666 2.66602 6.66659C2.66602 5.2521 3.22792 3.89554 4.22811 2.89535C5.22831 1.89516 6.58486 1.33325 7.99935 1.33325C9.41384 1.33325 10.7704 1.89516 11.7706 2.89535C12.7708 3.89554 13.3327 5.2521 13.3327 6.66659Z" stroke="#ED1651" stroke-linecap="round" stroke-linejoin="round"/>
<path id="Vector_2" d="M8 8.66675C9.10457 8.66675 10 7.77132 10 6.66675C10 5.56218 9.10457 4.66675 8 4.66675C6.89543 4.66675 6 5.56218 6 6.66675C6 7.77132 6.89543 8.66675 8 8.66675Z" stroke="#ED1651" stroke-linecap="round" stroke-linejoin="round"/>
</g>
</svg>
