<svg width="70" height="71" viewBox="0 0 70 71" fill="none" xmlns="http://www.w3.org/2000/svg">
<g id="icons/quality">
<path id="Vector" d="M8.75 44.0596L23.6833 29.1262C25.3227 27.4848 27.5468 26.5616 29.8667 26.5596H37.9167C39.4638 26.5596 40.9475 27.1741 42.0415 28.2681C43.1354 29.3621 43.75 30.8458 43.75 32.3929C43.75 33.94 43.1354 35.4237 42.0415 36.5177C40.9475 37.6116 39.4638 38.2262 37.9167 38.2262H30.625M42.2917 36.2429L54.4542 21.9804C55.3938 20.9388 56.6969 20.297 58.0954 20.187C59.4938 20.0769 60.8813 20.507 61.9723 21.3888C63.0633 22.2705 63.7748 23.5369 63.9606 24.9273C64.1463 26.3178 63.7921 27.7265 62.9708 28.8637L50.7208 46.1887C49.9189 47.325 48.8576 48.2537 47.625 48.8979C46.3924 49.5421 45.0241 49.8832 43.6333 49.8929H28.6708C27.9011 49.8923 27.1388 50.044 26.428 50.3394C25.7172 50.6347 25.0718 51.0678 24.5292 51.6137L20.4167 55.7262" stroke="#012854" stroke-width="2" stroke-linecap="round" stroke-linejoin="round"/>
<path id="Vector_2" d="M5.83301 41.1429L23.333 58.6429" stroke="#012854" stroke-width="2" stroke-linecap="round" stroke-linejoin="round"/>
</g>
</svg>
