<svg width="133" height="28" viewBox="0 0 133 28" fill="none" xmlns="http://www.w3.org/2000/svg">
<g clip-path="url(#clip0_190_47912)">
<path d="M6.05437 4.36182C2.76656 4.36182 0.0300013 6.70709 -0.578125 9.81285H2.16063C2.70968 8.18773 4.24531 7.01118 6.05437 7.01118C8.31845 7.01118 10.1625 8.85469 10.1625 11.121C10.1625 13.3873 8.31845 15.2314 6.05437 15.2314C4.24531 15.2314 2.70968 14.0549 2.16063 12.4269H-0.578125C0.0300013 15.5355 2.76656 17.8808 6.05437 17.8808C9.78627 17.8808 12.8137 14.8551 12.8137 11.121C12.8137 7.38693 9.78627 4.36182 6.05437 4.36182Z" fill="#005BAA"/>
<path d="M49.9878 4.49121H47.3366L45.0725 9.81289H47.8594L48.625 7.94697L49.3906 9.81289L50.4604 12.427H43.9591L41.7344 17.6574H44.6656L45.7616 14.9671H51.4863L52.5844 17.6574H55.5903" fill="#005BAA"/>
<path d="M127.654 4.49121H125.003L122.736 9.81289H125.525L126.291 7.94697L127.054 9.81289L128.126 12.427H121.625L119.4 17.6574H122.331L123.427 14.9671H129.152L130.248 17.6574H133.256" fill="#005BAA"/>
<path d="M24.1814 7.83563V14.1989C25.2401 14.1989 26.0889 13.9105 26.7298 13.3332C27.3686 12.753 27.6901 11.9791 27.6901 11.0097C27.6901 10.0515 27.3686 9.28379 26.7298 8.70419C26.0889 8.12683 25.2401 7.83563 24.1814 7.83563ZM21.307 14.1989V7.83563C20.2505 7.83563 19.3973 8.12683 18.752 8.70419C18.1045 9.28379 17.7808 10.0515 17.7808 11.0097C17.7808 11.9791 18.1045 12.753 18.752 13.3332C19.3973 13.9105 20.2505 14.1989 21.307 14.1989ZM24.1814 18.1738H21.307V16.7564C19.3295 16.7564 17.7567 16.2115 16.5864 15.1246C15.4182 14.0348 14.832 12.6438 14.832 10.9532C14.832 9.28603 15.4182 7.92298 16.5864 6.86682C17.7567 5.8101 19.3295 5.2809 21.307 5.2809V4.08643H24.1814V5.2809C26.148 5.2809 27.7186 5.81234 28.8933 6.87522C30.0701 7.9409 30.6564 9.30562 30.6564 10.9727C30.6564 12.6527 30.0723 14.0348 28.902 15.1246C27.7339 16.2115 26.1589 16.7564 24.1814 16.7564" fill="#005BAA"/>
<path d="M35.4903 17.6528V7.2407H31.5156V4.58911H42.3372V7.2407H38.3625V17.6528" fill="#005BAA"/>
<path d="M59.338 4.58911H68.6676V17.6528H65.7932V7.18359H62.0244V8.17254C62.0244 10.7228 61.8709 12.7007 61.5668 14.1069C61.2611 15.5113 60.817 16.483 60.2329 17.0189C59.6488 17.5526 58.8329 17.8191 57.7868 17.8191C57.2028 17.8191 56.6999 17.7648 56.2754 17.6528L56.4636 15.2817C56.6366 15.3081 56.7872 15.3187 56.9121 15.3187C57.3344 15.3187 57.6799 15.2291 57.947 15.0499C58.2136 14.8685 58.4628 14.505 58.6929 13.9585C58.9225 13.4091 59.0888 12.5909 59.1868 11.504C59.2876 10.4148 59.338 9.01254 59.338 7.29502" fill="#005BAA"/>
<path d="M77.2146 11.4928H74.6772V15.0589H77.2319C78.6627 15.0589 79.3779 14.4485 79.3779 13.2299C79.3779 12.0729 78.6583 11.4928 77.2146 11.4928ZM71.8027 17.6528V4.58911H74.6772V9.03215H77.4548C78.9489 9.03215 80.1171 9.41294 80.9638 10.1785C81.8105 10.944 82.2327 11.9721 82.2327 13.2669C82.2327 14.6103 81.7887 15.6777 80.9005 16.4673C80.0101 17.2569 78.8005 17.6528 77.2689 17.6528" fill="#005BAA"/>
<path d="M84.4355 17.6528V4.58911H87.5335L90.9657 10.113L94.3996 4.58911H97.4976V17.6528H94.6427V9.12399L90.9657 14.7044H90.8935L87.2535 9.18111V17.6528" fill="#005BAA"/>
<path d="M100.762 17.6528H103.636V4.58911H100.762V17.6528Z" fill="#005BAA"/>
<path d="M106.902 17.6528V4.58911H109.775V10.2989L115.075 4.58911H118.546L113.226 10.1325L118.787 17.6528H115.338L111.287 12.0903L109.775 13.6589V17.6528" fill="#005BAA"/>
<path d="M21.4883 26.4141V22.1133H22.0942L23.6998 24.3751L25.3033 22.1133H25.9202V26.4141H25.2705V23.137L23.6824 25.3159L22.1117 23.137V26.4141" fill="white"/>
<path d="M29.3958 24.0098H32.163C32.1258 23.5942 31.988 23.2487 31.7517 22.9749C31.5176 22.6994 31.1961 22.5638 30.7914 22.5638C30.4261 22.5638 30.1133 22.6994 29.853 22.971C29.5926 23.242 29.4395 23.5875 29.3958 24.0098ZM30.8921 26.5124C30.2883 26.5124 29.7786 26.3046 29.3652 25.8869C28.9539 25.4669 28.7461 24.9287 28.7461 24.2679C28.7461 23.6424 28.943 23.111 29.3367 22.6753C29.7305 22.2424 30.2205 22.0234 30.8089 22.0234C31.4236 22.0234 31.9114 22.2402 32.2724 22.6708C32.6333 23.1042 32.8127 23.6469 32.8127 24.301C32.8127 24.3838 32.8105 24.4606 32.8039 24.5261H29.3958C29.4395 24.9634 29.6036 25.3112 29.8902 25.5694C30.1745 25.8275 30.5158 25.9569 30.9074 25.9569C31.4236 25.9569 31.8743 25.753 32.2636 25.3487L32.6617 25.7071C32.1805 26.243 31.5899 26.5124 30.8921 26.5124Z" fill="white"/>
<path d="M36.1133 25.8474H38.4255V22.68H36.6208V23.277C36.6208 24.36 36.4524 25.2151 36.1133 25.8474ZM34.9648 27.4859V25.8474H35.4308C35.8136 25.1429 36.0061 24.15 36.0061 22.8637V22.1133H39.0642V25.8474H39.7139L39.6133 27.4859H39.0817V26.4141H35.6058L35.4898 27.4859" fill="white"/>
<path d="M42.2578 26.4141V22.1133H42.8988V25.5147L45.4516 22.1133H46.075V26.4141H45.4341V23.0126L42.8725 26.4141" fill="white"/>
<path d="M51.8964 26.4141V24.6422C51.7236 24.743 51.4983 24.8326 51.2227 24.9133C50.9449 24.9945 50.6889 25.0337 50.4571 25.0337C50.0239 25.0337 49.6804 24.9222 49.4223 24.701C49.1642 24.4782 49.0352 24.1612 49.0352 23.7451V22.1133H49.6739V23.6533C49.6739 23.907 49.7504 24.1086 49.9036 24.2547C50.0567 24.4014 50.2689 24.4759 50.5402 24.4759C51.0499 24.4759 51.5027 24.3404 51.8964 24.0688V22.1133H52.5352V26.4141" fill="white"/>
<path d="M55.6289 26.4141V22.1133H56.2695V23.9686H58.7481V22.1133H59.3871V26.4141H58.7481V24.5347H56.2695V26.4141" fill="white"/>
<path d="M62.4805 26.4141V22.1133H63.1217V25.5147L65.6742 22.1133H66.298V26.4141H65.6568V23.0126L63.0976 26.4141" fill="white"/>
<path d="M72.0531 21.2167C71.8409 21.4049 71.5805 21.499 71.2764 21.499C70.9701 21.499 70.7119 21.4049 70.5003 21.2167C70.2858 21.0286 70.1542 20.7833 70.1044 20.4837L70.5439 20.3918C70.6554 20.781 70.8979 20.9759 71.2764 20.9759C71.6528 20.9759 71.898 20.781 72.0072 20.3918L72.4491 20.4837C72.3987 20.7833 72.2676 21.0286 72.0531 21.2167ZM69.3887 26.4141V22.1133H70.0299V25.5147L72.5824 22.1133H73.2062V26.4141H72.565V23.0126L70.0036 26.4141" fill="white"/>
<path d="M84.167 27.4859V26.4141H80.457V22.1133H81.0977V25.8474H83.5085V22.1133H84.1497V25.8474H84.797L84.6985 27.4859" fill="white"/>
<path d="M87.7216 24.0098H90.4913C90.4516 23.5942 90.3161 23.2487 90.0797 22.9749C89.844 22.6994 89.5242 22.5638 89.1199 22.5638C88.7542 22.5638 88.4417 22.6994 88.1813 22.971C87.9187 23.242 87.7675 23.5875 87.7216 24.0098ZM89.2201 26.5124C88.6142 26.5124 88.1069 26.3046 87.6936 25.8869C87.2797 25.4669 87.0742 24.9287 87.0742 24.2679C87.0742 23.6424 87.2713 23.111 87.665 22.6753C88.0587 22.2424 88.5487 22.0234 89.1373 22.0234C89.7516 22.0234 90.2399 22.2402 90.6005 22.6708C90.9595 23.1042 91.1409 23.6469 91.1409 24.301C91.1409 24.3838 91.1365 24.4606 91.132 24.5261H87.7216C87.7675 24.9634 87.9316 25.3112 88.2183 25.5694C88.5028 25.8275 88.8416 25.9569 89.2358 25.9569C89.7516 25.9569 90.2024 25.753 90.5916 25.3487L90.9897 25.7071C90.5087 26.243 89.9179 26.5124 89.2201 26.5124Z" fill="white"/>
<path d="M93.9258 26.4141V22.1133H94.5664V23.9686H97.045V22.1133H97.6839V26.4141H97.045V24.5347H94.5664V26.4141" fill="white"/>
<path d="M101.817 26.4141V22.68H100.279V22.1133H104.005V22.68H102.467V26.4141" fill="white"/>
<path d="M108.77 25.9306C109.203 25.9306 109.562 25.7794 109.85 25.4776C110.139 25.1757 110.284 24.7708 110.284 24.259C110.284 23.7668 110.137 23.3647 109.842 23.0584C109.549 22.7498 109.192 22.5969 108.77 22.5969C108.354 22.5969 107.991 22.7543 107.68 23.0712C107.37 23.3865 107.214 23.7847 107.214 24.268C107.214 24.7512 107.37 25.1472 107.68 25.4624C107.991 25.7749 108.354 25.9306 108.77 25.9306ZM106.6 27.7439V22.1131H107.241V22.9794C107.672 22.341 108.221 22.0212 108.886 22.0212C109.435 22.0212 109.914 22.2268 110.325 22.6339C110.734 23.041 110.94 23.5853 110.94 24.268C110.94 24.9394 110.734 25.4798 110.325 25.8886C109.914 26.3002 109.435 26.5035 108.886 26.5035C108.21 26.5035 107.661 26.1994 107.241 25.589V27.7439" fill="white"/>
</g>
<defs>
<clipPath id="clip0_190_47912">
<rect width="133" height="28" fill="white"/>
</clipPath>
</defs>
</svg>
