<svg width="214" height="214" viewBox="0 0 214 214" fill="none" xmlns="http://www.w3.org/2000/svg">
<g id="a" clip-path="url(#clip0_382_9647)">
<g id="Group">
<path id="Vector" d="M106.743 210.096L106.195 209.774C80.7892 194.907 59.4011 178.717 42.6328 161.639C29.1908 147.952 18.6636 133.675 11.3376 119.196C4.8043 106.285 2.08608 95.5906 0.953489 88.8964C-0.280439 81.6479 0.029533 77.4453 0.047416 77.2188V77.1115C0.047416 77.0102 0.047416 76.9089 0.047416 76.8135C0.047416 68.6111 1.63304 60.6592 4.75661 53.1662C7.77288 45.9295 12.0946 39.432 17.5966 33.8525C23.0986 28.273 29.5127 23.8917 36.648 20.8277C44.0396 17.6565 51.8903 16.053 59.9853 16.053C69.4931 16.053 78.5777 18.2407 87.0006 22.5624C94.6128 26.4668 101.42 32.0762 106.773 38.8419C112.126 32.0762 118.94 26.4668 126.546 22.5624C134.969 18.2407 144.059 16.053 153.561 16.053C161.656 16.053 169.507 17.6624 176.898 20.8277C184.04 23.8917 190.448 28.273 195.95 33.8525C201.452 39.432 205.774 45.9295 208.79 53.1662C211.913 60.6592 213.499 68.6111 213.499 76.8135C213.499 77.3977 213.487 78.0116 213.463 78.7389C213.475 83.7104 212.432 101.695 198.579 125.783C190.74 139.41 180.058 152.816 166.824 165.632C150.724 181.226 130.689 196.081 107.274 209.78L106.726 210.102L106.743 210.096ZM2.18742 78.3931C2.16357 80.0265 2.25299 83.6031 3.12329 88.6878C4.24396 95.2449 6.93237 105.718 13.3643 118.386C24.7081 140.733 50.1139 174.312 106.737 207.562C149.102 182.687 179.372 154.801 196.695 124.686C210.298 101.039 211.305 83.5256 211.293 78.721V78.6852C211.317 77.9699 211.329 77.3738 211.329 76.8075C211.329 44.5108 185.417 18.2287 153.573 18.2287C135.428 18.2287 118.689 26.6278 107.655 41.274L106.785 42.4304L105.915 41.274C94.881 26.6278 78.1425 18.2287 59.9972 18.2287C28.1357 18.2347 2.22318 44.5108 2.22318 76.8135C2.22318 76.9029 2.22318 76.9864 2.22318 77.0758C2.22318 77.1473 2.22318 77.2188 2.22318 77.2904V78.3931H2.18146H2.18742Z" fill="#AEDAE1"/>
</g>
<g id="Group_2">
<g id="Group_3">
<path id="Vector_2" d="M171.283 90.3739C171.283 70.5253 155.196 54.4385 135.348 54.4385C123.692 54.4385 113.338 59.9816 106.773 68.5812C100.208 59.9816 89.854 54.4385 78.198 54.4385C58.3494 54.4385 42.2625 70.5253 42.2625 90.3739C42.2625 90.4734 42.2625 90.5728 42.2625 90.6723C42.2625 90.6723 38.9529 130.767 106.746 169.886C168.742 134.113 171.274 97.5176 171.256 91.5223C171.265 91.1425 171.274 90.7537 171.274 90.3739H171.283Z" fill="#ED1651"/>
<path id="Vector_3" d="M171.284 90.3739C171.284 90.7537 171.284 91.1425 171.266 91.5223C171.284 97.5176 168.743 134.113 106.756 169.886C78.8504 153.781 62.9896 137.513 53.9922 123.94C53.9922 123.94 88.0739 158.049 106.774 158.049C123.096 158.049 161.672 123.271 171.194 87.6882C171.257 88.5744 171.293 89.4787 171.293 90.3829L171.284 90.3739Z" fill="#ED1651"/>
<path id="Vector_4" d="M152.774 89.153C152.774 75.0012 141.299 63.5261 127.147 63.5261C118.837 63.5261 111.449 67.4778 106.774 73.6087C102.09 67.4778 94.7025 63.5261 86.4014 63.5261C72.2496 63.5261 60.7745 75.0012 60.7745 89.153C60.7745 89.2253 60.7745 89.2977 60.7745 89.361C60.7745 89.361 58.4144 117.954 106.765 145.85C150.975 120.341 152.783 94.244 152.774 89.9668C152.774 89.6955 152.792 89.4242 152.792 89.1439L152.774 89.153Z" fill="#ED1651"/>
<path id="Vector_5" d="M80.9694 98.6117H96.6855C97.4089 98.6117 97.9967 98.0239 97.9967 97.3005V81.5844C97.9967 80.861 98.5845 80.2732 99.3079 80.2732H114.201C114.925 80.2732 115.512 80.861 115.512 81.5844V97.3005C115.512 98.0239 116.1 98.6117 116.823 98.6117H132.54C133.263 98.6117 133.851 99.1995 133.851 99.9229V114.816C133.851 115.54 133.263 116.127 132.54 116.127H116.823C116.1 116.127 115.512 116.715 115.512 117.438V133.155C115.512 133.878 114.925 134.466 114.201 134.466H99.3079C98.5845 134.466 97.9967 133.878 97.9967 133.155V117.438C97.9967 116.715 97.4089 116.127 96.6855 116.127H80.9694C80.246 116.127 79.6582 115.54 79.6582 114.816V99.9229C79.6582 99.1995 80.246 98.6117 80.9694 98.6117Z" fill="white"/>
</g>
</g>
</g>
<defs>
<clipPath id="clip0_382_9647">
<rect width="213.404" height="214" fill="white"/>
</clipPath>
</defs>
</svg>
