<svg width="60" height="60" viewBox="0 0 60 60" fill="none" xmlns="http://www.w3.org/2000/svg">
<g clip-path="url(#clip0_703_792)">
<path d="M37.5984 50.1904C37.6348 50.1078 37.6657 50.0235 37.6875 49.9375C37.7766 49.5607 37.7984 49.1821 37.7366 48.7854C37.602 47.9937 37.122 47.2995 36.5748 46.7623C36.0202 46.2119 35.3857 45.7673 34.7238 45.3607C34.2275 45.0565 33.7075 44.7755 33.1784 44.5012C33.1184 45.159 33.0548 45.7854 32.9893 46.3772C33.2457 46.5028 33.5002 46.6268 33.742 46.759C34.9566 47.4102 36.0038 48.2069 36.2038 49.0367C36.2529 49.2383 36.2566 49.4631 36.2329 49.6615C36.2111 49.8086 36.1366 49.9359 36.0202 50.0764H31.422C32.1184 45.8747 32.6111 38.802 32.9457 32.402C32.6293 32.4565 32.2966 32.521 31.8911 32.6086C31.5184 32.6797 31.1729 32.7656 30.8111 32.8549L30.5802 32.9127C30.3075 32.9755 30.062 33.0499 29.8166 33.1259C29.6638 33.1722 29.5075 33.2202 29.3548 33.2631C29.2166 33.3127 29.0784 33.3607 28.9366 33.4086C28.6802 33.4962 28.4402 33.5788 28.2329 33.6731C27.9093 33.8003 27.622 33.9342 27.3493 34.0714C27.6802 40.0003 28.1457 46.2367 28.7802 50.0764H23.742C21.1384 50.0764 19.0293 51.7491 19.0293 53.8119H41.1748C41.1748 52.0598 39.6511 50.5937 37.5984 50.1904Z" fill="#012854"/>
<path d="M32.8816 7.46147C34.5762 6.67635 35.1543 5.65486 35.0834 4.57056C35.2034 4.5623 35.318 4.54908 35.4453 4.54412C36.4998 4.49949 37.7816 4.57222 39.1453 5.08792C39.3162 5.15403 39.4889 5.22015 39.6671 5.28957C39.8416 5.36726 40.0053 5.47304 40.178 5.56395C40.3471 5.66313 40.538 5.73255 40.7016 5.86147C40.8689 5.98213 41.0398 6.10445 41.2125 6.23172C41.8943 6.71437 42.4943 7.39205 43.0834 8.2466C43.3071 8.57717 43.5234 8.93585 43.7289 9.31106H47.2834C46.8471 8.35899 46.338 7.48627 45.7816 6.69122C45.4053 6.16891 45.0143 5.678 44.5743 5.22676C44.3543 5.00197 44.1453 4.78048 43.8925 4.58048C43.7725 4.478 43.6543 4.37883 43.538 4.278C43.4107 4.1937 43.2889 4.10775 43.1653 4.02346C42.9198 3.85982 42.678 3.69784 42.4453 3.53916C42.2143 3.37717 41.9416 3.26974 41.6962 3.14081C41.4434 3.02015 41.2053 2.88957 40.958 2.78875C40.7053 2.70114 40.4543 2.61519 40.2125 2.52924C38.2343 1.88792 36.4907 1.92098 35.1743 2.09453C34.798 2.14742 34.4543 2.21023 34.1343 2.28131C33.1762 1.01519 31.7162 0.411885 29.5034 1.43833C26.9543 2.6218 24.3725 5.51932 25.3053 7.18213C26.238 8.84494 30.3362 8.64329 32.8816 7.46147Z" fill="#012854"/>
<path d="M43.6345 23.1457C42.7363 24.3705 41.5254 25.4433 40.0763 26.2895C38.6308 27.1408 36.9618 27.7672 35.1999 28.2036C34.7672 28.3358 34.309 28.3986 33.8618 28.4995L33.1836 28.6383L32.4418 28.7804C31.9454 28.8697 31.4472 28.9771 30.9545 29.0945C30.4618 29.2003 29.9672 29.3391 29.4763 29.4747C28.9836 29.6019 28.4963 29.7821 28.009 29.9325C27.5254 30.1226 27.0399 30.278 26.5672 30.5061C25.6163 30.9176 24.6818 31.4267 23.8327 32.0895C22.9945 32.7507 22.209 33.5788 21.7618 34.6069C21.3072 35.6251 21.2072 36.7788 21.4527 37.7937C21.6799 38.8185 22.1708 39.716 22.7599 40.4895C23.349 41.268 24.049 41.9358 24.8163 42.5028C25.1927 42.792 25.6018 43.0466 26.0163 43.2829C26.2218 43.3986 26.4454 43.5094 26.6527 43.6119L26.9508 43.749C26.8799 42.9573 26.8127 42.116 26.7418 41.2366C26.5963 41.1325 26.4508 41.0234 26.309 40.9061C25.7199 40.4317 25.1908 39.8763 24.7708 39.2747C24.349 38.673 24.0399 38.0201 23.929 37.3738C23.669 36.0763 24.2908 34.8912 25.5727 33.9755C26.1945 33.516 26.9436 33.1242 27.7527 32.8019C28.1436 32.6267 28.5799 32.4995 28.9927 32.3457C29.429 32.2251 29.8527 32.0763 30.2999 31.9722C30.7472 31.8631 31.1872 31.7474 31.6454 31.6614C32.0963 31.5639 32.5545 31.4747 33.0199 31.4019L33.709 31.2846L34.4618 31.1474C34.9654 31.0466 35.4745 30.9837 35.9708 30.8449C37.9708 30.3887 39.949 29.7011 41.7381 28.6879C43.5272 27.6796 45.1108 26.3342 46.2872 24.7672C47.4836 23.2085 48.1945 21.4317 48.5781 19.7011C48.7799 18.7854 48.8799 17.8763 48.9018 16.9887C47.9036 17.7854 46.729 18.5738 45.3545 19.2978C45.0527 20.6433 44.5018 21.9606 43.6345 23.1457Z" fill="#012854"/>
<path d="M30.1018 10.2846L7.23633 10.2846C7.23633 10.2846 11.0072 20.2846 26.8036 21.5276C26.8672 23.478 26.9672 26.1887 27.1054 29.2185C27.1236 29.2135 27.1381 29.2069 27.1545 29.2003C27.2963 29.1458 27.4418 29.0929 27.5836 29.0367L27.6218 29.0218L27.66 29.0086C27.82 28.9606 27.98 28.9061 28.14 28.8532C28.4745 28.7425 28.8218 28.6284 29.1836 28.5358L29.3509 28.4896C29.7909 28.3689 30.2454 28.2449 30.7109 28.1458C31.2727 28.0102 31.7654 27.9061 32.2309 27.8234L32.9618 27.6846L33.1672 27.6416C33.2709 25.2532 33.3491 23.1325 33.3981 21.5276C49.1963 20.2863 52.9691 10.2846 52.9691 10.2846H30.1018Z" fill="#012854"/>
</g>
<defs>
<clipPath id="clip0_703_792">
<rect width="60" height="60" fill="white"/>
</clipPath>
</defs>
</svg>
