<svg width="40" height="40" viewBox="0 0 40 40" fill="none" xmlns="http://www.w3.org/2000/svg">
<g id="cloud-upload">
<path id="Vector" d="M11.6663 26.6665C10.0247 26.6684 8.44006 26.0644 7.21608 24.9704C5.99211 23.8764 5.21483 22.3692 5.03315 20.7377C4.85148 19.1061 5.27819 17.4649 6.23153 16.1284C7.18487 14.7919 8.5978 13.8542 10.1996 13.4949C9.73617 11.3334 10.1503 9.07627 11.351 7.22013C12.5517 5.36399 14.4406 4.06085 16.6021 3.59738C18.7637 3.13392 21.0207 3.54809 22.8769 4.74879C24.733 5.9495 26.0362 7.83837 26.4996 9.99988H26.6663C28.7329 9.99781 30.7265 10.7637 32.2602 12.1488C33.7939 13.534 34.7581 15.4396 34.9658 17.4957C35.1735 19.5518 34.6098 21.6118 33.3841 23.2757C32.1584 24.9395 30.3582 26.0886 28.333 26.4999M24.9996 21.6665L19.9996 16.6665M19.9996 16.6665L14.9996 21.6665M19.9996 16.6665V36.6665" stroke="#8F8F8F" stroke-width="2" stroke-linecap="round" stroke-linejoin="round"/>
</g>
</svg>
