<svg width="41" height="42" viewBox="0 0 41 42" fill="none" xmlns="http://www.w3.org/2000/svg">
<g clip-path="url(#clip0_382_9941)">
<path d="M30.5618 7.7832H9.88458C8.23839 10.5988 7.11243 13.6877 6.56055 16.9022V37.434C6.56023 37.7627 6.62475 38.0883 6.7504 38.3921C6.87605 38.6958 7.06037 38.9718 7.29281 39.2043C7.52525 39.4367 7.80125 39.621 8.10501 39.7467C8.40877 39.8723 8.73433 39.9368 9.06305 39.9365H31.3896C31.7179 39.9362 32.0428 39.8712 32.3459 39.7452C32.6491 39.6192 32.9244 39.4348 33.1562 39.2024C33.388 38.97 33.5717 38.6942 33.6969 38.3908C33.8221 38.0874 33.8863 37.7623 33.8858 37.434V16.9022C33.3339 13.6877 32.208 10.5988 30.5618 7.7832ZM20.8678 18.8865C21.4992 18.8895 22.13 18.9275 22.7573 19.0002C23.9745 19.1117 25.1365 19.5603 26.1129 20.2957C26.8193 20.8686 27.3675 21.6126 27.7054 22.457C27.969 23.1044 28.131 23.7886 28.1857 24.4855C28.211 24.7825 28.192 25.0732 28.1983 25.3702C28.3374 30.6154 23.9896 34.2933 23.9896 34.2933C23.2692 35.1464 21.2975 34.565 21.2975 34.565L21.2912 34.5587C20.4172 34.3122 19.492 34.3122 18.618 34.5587V34.565C18.618 34.565 16.6401 35.1464 15.926 34.2933C15.926 34.2933 11.5782 30.6154 11.7109 25.3702C11.6952 25.1388 11.6952 24.9065 11.7109 24.6751C11.7483 24.0426 11.8695 23.4178 12.0711 22.8172C12.3369 22.0136 12.7821 21.281 13.3729 20.6749C14.1628 19.9214 15.1442 19.399 16.2104 19.1646C17.2588 18.9571 18.3269 18.866 19.3954 18.8928H19.7745C19.7637 17.8651 19.5241 16.8526 19.0731 15.929L20.0716 15.4551C20.2169 15.771 20.3433 16.087 20.457 16.4156C20.7612 15.6387 21.2402 14.9423 21.8569 14.3803C22.4735 13.8184 23.2113 13.4059 24.013 13.1749C24.8147 12.9439 25.6589 12.9006 26.48 13.0484C27.3011 13.1961 28.0772 13.5309 28.7481 14.0269C28.4984 14.8254 28.0676 15.5554 27.4893 16.16C26.911 16.7646 26.2009 17.2275 25.4143 17.5125C24.6277 17.7976 23.7859 17.8971 22.9545 17.8033C22.1231 17.7095 21.3246 17.4249 20.6213 16.9717C20.7798 17.5978 20.8625 18.2407 20.8678 18.8865Z" fill="#ED1651"/>
<path d="M30.5879 2.32999C30.5879 1.84671 30.3959 1.38323 30.0541 1.04151C29.7124 0.699787 29.2489 0.507811 28.7656 0.507813H11.6816C11.1983 0.507821 10.7348 0.699801 10.3931 1.04152C10.0514 1.38324 9.85939 1.84672 9.85938 2.32999V2.72634C10.1124 2.74162 10.3677 2.75689 10.6229 2.77C12.1849 2.85725 13.7599 2.90087 15.348 2.90087C18.3517 2.90353 21.3534 2.74478 24.3401 2.4253C24.5125 2.4062 24.6855 2.45638 24.8209 2.5648C24.9563 2.67321 25.0431 2.83098 25.0622 3.0034C25.0813 3.17581 25.0311 3.34875 24.9227 3.48417C24.8143 3.61958 24.6565 3.70638 24.4841 3.72548C21.4496 4.04993 18.3998 4.21159 15.348 4.20977C13.762 4.20977 12.187 4.16759 10.6229 4.08323C10.3677 4.07015 10.1124 4.05487 9.85938 4.03744V6.34108H30.5879V2.32999Z" fill="#ED1651"/>
</g>
<defs>
<clipPath id="clip0_382_9941">
<rect width="40.4444" height="42" fill="white"/>
</clipPath>
</defs>
</svg>
