<svg width="531" height="483" viewBox="0 0 531 483" fill="none" xmlns="http://www.w3.org/2000/svg">
<path d="M402.597 308.401L387.793 322.577C388.242 323.206 388.422 324.037 388.175 324.846C387.77 326.261 386.288 327.07 384.895 326.643C383.592 326.261 382.828 324.98 383.03 323.677L363.643 318.016C363.643 318.016 363.62 318.218 363.575 318.331C363.171 319.746 361.688 320.555 360.273 320.128C359.801 319.993 359.419 319.723 359.105 319.409L344.368 333.517C344.997 334.169 345.289 335.135 344.997 336.078C344.727 336.954 344.053 337.606 343.244 337.875L348.142 357.914C348.456 357.892 348.771 357.914 349.108 358.004C350.299 358.364 351.062 359.464 351.017 360.655L370.697 366.406C371.303 365.373 372.539 364.856 373.73 365.193C375.145 365.597 375.954 367.08 375.527 368.473C375.302 369.237 374.763 369.821 374.067 370.135L378.942 390.039C379.234 390.039 379.526 390.039 379.84 390.129C381.255 390.534 382.064 392.016 381.637 393.409C381.233 394.824 379.75 395.633 378.357 395.206C377.953 395.094 377.594 394.869 377.302 394.6L362.564 408.708C363.126 409.359 363.328 410.258 363.081 411.157C362.677 412.572 361.194 413.381 359.801 412.954C358.386 412.549 357.6 411.067 358.004 409.674L338.437 403.968C338.033 405.383 336.55 406.192 335.157 405.765C333.742 405.361 332.955 403.878 333.36 402.463C333.607 401.564 334.303 400.935 335.135 400.665L330.282 380.874C329.878 380.941 329.473 380.941 329.069 380.829C327.654 380.424 326.867 378.942 327.272 377.549L307.727 371.843C307.323 373.235 305.84 374.067 304.447 373.64C303.975 373.505 303.594 373.235 303.279 372.921L288.542 387.029C289.171 387.681 289.463 388.647 289.193 389.59C288.789 391.005 287.306 391.814 285.891 391.387C284.498 390.983 283.689 389.5 284.094 388.085L264.527 382.379C264.122 383.794 262.64 384.603 261.247 384.176C259.854 383.772 259.023 382.289 259.45 380.896C259.697 380.065 260.303 379.458 261.067 379.166L256.215 359.33C255.878 359.374 255.518 359.33 255.181 359.24C253.766 358.835 252.957 357.353 253.384 355.96L233.435 350.141C232.918 351.354 231.57 352.028 230.267 351.646C229.908 351.534 229.593 351.377 229.324 351.152L214.564 365.283C215.036 365.934 215.238 366.765 214.991 367.597C214.587 369.012 213.104 369.821 211.711 369.394C210.408 369.012 209.622 367.709 209.847 366.406L190.234 360.677C189.718 361.891 188.37 362.564 187.067 362.183C185.652 361.778 184.843 360.296 185.27 358.903C185.517 358.071 186.146 357.442 186.887 357.173L182.035 337.359C181.698 337.404 181.338 337.359 180.979 337.269C179.676 336.887 178.912 335.606 179.114 334.303L159.278 328.507C158.761 329.72 157.413 330.394 156.11 330.013C154.695 329.608 153.886 328.125 154.313 326.733C154.582 325.834 155.256 325.205 156.087 324.935L151.19 304.852C150.853 304.896 150.471 304.852 150.112 304.762C148.809 304.38 148.045 303.099 148.247 301.796L128.635 296.068C128.118 297.281 126.77 297.955 125.467 297.573C124.075 297.169 123.266 295.686 123.67 294.293C123.917 293.439 124.569 292.81 125.333 292.541L120.48 272.726C120.121 272.771 119.739 272.749 119.379 272.659C118.076 272.277 117.313 270.997 117.515 269.694L97.8579 263.965C97.3412 265.178 95.9933 265.852 94.6903 265.47C94.3084 265.358 93.9714 265.156 93.7018 264.909L78.7625 279.196C79.3466 279.848 79.5937 280.791 79.3466 281.69C79.0995 282.544 78.448 283.173 77.6842 283.442L82.5366 303.279C82.8961 303.234 83.3005 303.234 83.6824 303.346C85.0752 303.751 85.8839 305.233 85.4796 306.626C85.0752 308.042 83.5925 308.85 82.1997 308.424C81.8178 308.311 81.4808 308.109 81.2112 307.884L66.4741 321.992C66.9908 322.644 67.193 323.52 66.9458 324.374C66.5415 325.789 65.0588 326.598 63.6659 326.171C62.363 325.789 61.5991 324.509 61.8013 323.206L42.1893 317.477C41.6726 318.69 40.3247 319.364 39.0217 318.982C37.6289 318.578 36.8201 317.095 37.2245 315.68C37.4716 314.871 38.0557 314.264 38.7746 313.972L33.9221 294.113C33.6076 294.136 33.2706 294.113 32.9336 294.023C31.6307 293.641 30.8668 292.361 31.069 291.058L11.2997 285.284C10.783 286.498 9.43512 287.172 8.13214 286.79C6.7393 286.385 5.93056 284.903 6.33493 283.51C6.58204 282.678 7.21107 282.049 7.95242 281.78L3.09995 261.943C2.76297 261.988 2.40353 261.943 2.04409 261.853C0.628786 261.449 -0.179959 259.966 0.246878 258.573C0.651251 257.158 2.13395 256.349 3.52679 256.776C3.88623 256.889 4.20074 257.046 4.47032 257.27L19.4096 242.983C18.848 242.331 18.6234 241.41 18.8705 240.511C19.1176 239.68 19.7466 239.051 20.488 238.782L15.6355 218.945C15.2985 218.99 14.9391 218.945 14.5796 218.855C13.1643 218.451 12.3556 216.968 12.7824 215.575C13.1868 214.16 14.6695 213.374 16.0623 213.778C16.4218 213.868 16.7363 214.048 17.0059 214.272L31.7655 200.142C31.2937 199.49 31.114 198.659 31.3611 197.85C31.7655 196.435 33.2482 195.626 34.641 196.053C35.944 196.435 36.7078 197.715 36.5056 199.018L56.0952 204.724C56.6119 203.511 57.9598 202.837 59.2628 203.219C59.5773 203.309 59.8693 203.466 60.1164 203.646L75.2355 189.179C74.6065 188.505 74.3144 187.539 74.6065 186.618C74.876 185.741 75.55 185.09 76.3812 184.82L71.5512 165.074C71.1918 165.118 70.8099 165.118 70.4504 165.006C69.1474 164.624 68.3836 163.344 68.5858 162.018L48.9737 156.29C48.457 157.503 47.1091 158.177 45.8062 157.795C44.4133 157.39 43.6046 155.908 44.0089 154.492C44.2561 153.661 44.8851 153.055 45.6264 152.763L40.774 132.948C40.437 132.993 40.0776 132.948 39.7181 132.859C38.3253 132.454 37.5165 130.971 37.9209 129.556C38.3253 128.141 39.808 127.332 41.2233 127.759C41.5827 127.871 41.8972 128.029 42.1668 128.253L56.9264 114.123C56.4546 113.471 56.2749 112.64 56.4996 111.809C56.7467 110.933 57.4206 110.281 58.2294 110.012L53.2421 89.6356C52.9501 89.6356 52.6356 89.6357 52.3435 89.5458C50.9282 89.1414 50.1195 87.6587 50.5463 86.2434C50.9507 84.8281 52.4334 84.0418 53.8262 84.4462C54.2306 84.5585 54.59 84.7832 54.8821 85.0528L69.6192 70.9671C69.0576 70.3156 68.8329 69.3946 69.08 68.496C69.3271 67.6648 69.9337 67.0357 70.6975 66.7661L65.8451 46.9294C65.5081 46.9744 65.1486 46.9294 64.7892 46.8396C63.3964 46.4352 62.5876 44.9525 62.992 43.5597C63.3964 42.1668 64.8791 41.3581 66.2719 41.7625C66.6313 41.8748 66.9458 42.032 67.2154 42.2567L81.975 28.1261C81.5033 27.4746 81.3235 26.6434 81.5482 25.8122C81.9525 24.3969 83.4352 23.6106 84.8281 24.015C86.1311 24.3969 86.8949 25.6774 86.6927 27.0029L106.282 32.709C106.799 31.4959 108.147 30.8219 109.45 31.2038C110.865 31.6082 111.674 33.0909 111.247 34.4838C111 35.315 110.393 35.9215 109.652 36.2136L114.505 56.0503C114.841 56.0053 115.201 56.0503 115.56 56.1401C116.863 56.5221 117.627 57.8026 117.425 59.128L137.329 64.924C137.846 63.7109 139.194 63.0369 140.497 63.4188C141.89 63.8232 142.721 65.3059 142.294 66.6988C142.024 67.6198 141.305 68.2713 140.474 68.496L145.372 88.5349C145.709 88.5124 146.068 88.5349 146.405 88.6247C147.708 89.0066 148.472 90.2871 148.27 91.5901L167.837 97.2962C168.353 96.0831 169.701 95.4092 171.004 95.7911C172.42 96.1955 173.206 97.6782 172.802 99.071C172.554 99.9022 171.948 100.509 171.206 100.801L176.059 120.638C176.396 120.593 176.755 120.638 177.115 120.727C178.53 121.132 179.339 122.614 178.912 124.007C178.508 125.423 177.025 126.209 175.632 125.805C175.273 125.692 174.958 125.535 174.689 125.31L159.929 139.441C160.401 140.092 160.603 140.924 160.356 141.755C159.951 143.17 158.469 143.979 157.076 143.552C155.773 143.17 155.009 141.89 155.211 140.587L135.599 134.858C135.083 136.071 133.735 136.745 132.432 136.363C132.05 136.251 131.69 136.049 131.421 135.801L116.729 149.842C117.313 150.494 117.56 151.437 117.29 152.358C117.021 153.324 116.234 153.998 115.313 154.2L120.256 174.419C120.66 174.352 121.064 174.352 121.491 174.464C122.839 174.868 123.648 176.239 123.311 177.609L142.856 183.315C143.327 181.99 144.72 181.248 146.09 181.653C147.506 182.057 148.315 183.54 147.888 184.933C147.618 185.831 146.922 186.483 146.09 186.73L150.943 206.544C151.347 206.477 151.774 206.477 152.201 206.589C153.571 206.993 154.358 208.364 154.043 209.734L173.52 215.418C174.037 214.205 175.385 213.531 176.688 213.913C178.081 214.317 178.89 215.8 178.485 217.193C178.238 218.001 177.654 218.608 176.913 218.9L181.72 238.602C182.08 238.557 182.439 238.579 182.821 238.692C184.236 239.096 185.045 240.579 184.618 241.972C184.214 243.387 182.731 244.196 181.338 243.769C181.024 243.679 180.754 243.522 180.507 243.342L165.433 257.765C165.95 258.416 166.174 259.315 165.927 260.168C165.68 260.977 165.096 261.584 164.355 261.876L169.207 281.735C169.544 281.713 169.881 281.735 170.218 281.825C171.633 282.229 172.442 283.712 172.015 285.105L194.48 291.665L200.007 314.264C200.366 314.22 200.748 314.22 201.13 314.332C202.433 314.714 203.197 315.994 202.995 317.297L222.584 323.003C223.101 321.79 224.449 321.116 225.752 321.498C226.156 321.611 226.493 321.813 226.785 322.082L241.769 307.75C241.208 307.098 240.983 306.177 241.253 305.278C241.5 304.447 242.106 303.818 242.87 303.549L238.018 283.734C237.681 283.779 237.321 283.734 236.962 283.645C235.569 283.24 234.76 281.757 235.165 280.365L215.463 274.614C214.946 275.827 213.598 276.501 212.295 276.119C210.902 275.714 210.071 274.232 210.498 272.816C210.745 271.985 211.352 271.379 212.093 271.086L207.241 251.272C206.926 251.295 206.589 251.272 206.275 251.182C204.859 250.778 204.073 249.295 204.477 247.902C204.882 246.51 206.364 245.701 207.757 246.105C208.094 246.195 208.364 246.352 208.633 246.555L223.55 232.289C222.989 231.638 222.764 230.717 223.011 229.818C223.258 228.987 223.887 228.358 224.629 228.088L219.776 208.274C219.439 208.319 219.08 208.274 218.72 208.184C217.417 207.802 216.653 206.522 216.856 205.219L197.019 199.423C196.502 200.636 195.154 201.31 193.851 200.928C192.459 200.524 191.627 199.041 192.054 197.648C192.301 196.749 192.998 196.12 193.806 195.851L188.999 176.194C188.707 176.194 188.415 176.194 188.123 176.104C186.707 175.7 185.899 174.217 186.326 172.824C186.73 171.431 188.213 170.622 189.605 171.027C189.897 171.117 190.145 171.251 190.392 171.409L205.017 157.413C204.455 156.761 204.23 155.84 204.5 154.964C204.904 153.549 206.387 152.74 207.78 153.167C209.083 153.549 209.869 154.829 209.644 156.132L229.661 161.973C230.177 160.76 231.525 160.086 232.828 160.468C233.075 160.536 233.278 160.648 233.48 160.783L248.509 146.405C248.105 145.776 247.947 144.99 248.172 144.203C248.419 143.372 249.026 142.766 249.79 142.474L244.937 122.637C244.6 122.682 244.241 122.637 243.881 122.547C242.466 122.143 241.68 120.66 242.084 119.267L222.494 113.561C221.978 114.774 220.63 115.448 219.327 115.066C217.911 114.662 217.103 113.179 217.53 111.786C217.754 111.022 218.293 110.438 218.945 110.124L214.003 89.8828C213.733 89.8828 213.463 89.8828 213.194 89.7929C211.779 89.3885 210.992 87.9058 211.397 86.513C211.801 85.0977 213.284 84.3114 214.677 84.7158C215.058 84.8281 215.395 85.0078 215.665 85.2549L230.29 71.2592C229.908 70.6302 229.751 69.8663 229.975 69.1025C230.38 67.7097 231.862 66.9009 233.255 67.3053C234.558 67.6872 235.344 68.9902 235.12 70.2932L254.193 75.8645C254.709 74.6514 256.057 73.9774 257.36 74.3594C258.776 74.7637 259.584 76.2464 259.158 77.6393C258.933 78.3806 258.439 78.9422 257.81 79.2567L262.797 99.6776C263.156 99.6326 263.538 99.6326 263.92 99.7449C265.111 100.082 265.875 101.205 265.83 102.396L285.509 108.124C286.116 107.091 287.351 106.552 288.542 106.911C289.957 107.316 290.766 108.798 290.339 110.191C290.092 111.022 289.485 111.629 288.722 111.921L293.574 131.758C293.934 131.713 294.293 131.758 294.652 131.848C295.955 132.23 296.719 133.51 296.517 134.813L316.107 140.542C316.623 139.328 317.971 138.655 319.274 139.036C319.566 139.126 319.836 139.261 320.083 139.441L334.955 125.198C334.506 124.546 334.326 123.738 334.573 122.929C334.977 121.514 336.46 120.727 337.853 121.132C339.111 121.491 339.875 122.682 339.74 123.94L359.509 129.713C360.026 128.5 361.374 127.826 362.677 128.208C363.036 128.321 363.351 128.478 363.62 128.702L378.38 114.572C377.908 113.92 377.728 113.089 377.976 112.258C378.38 110.843 379.863 110.056 381.255 110.461C382.558 110.843 383.322 112.123 383.12 113.426L402.71 119.132C403.226 117.919 404.574 117.245 405.877 117.627C407.293 118.032 408.101 119.514 407.674 120.907C407.427 121.738 406.821 122.345 406.057 122.637L410.909 142.474C411.246 142.429 411.606 142.474 411.965 142.564C413.268 142.945 414.032 144.226 413.83 145.529L433.757 151.347C434.273 150.134 435.621 149.46 436.924 149.842C438.339 150.247 439.148 151.729 438.721 153.122C438.452 154.043 437.733 154.695 436.879 154.942L441.687 174.599C442.024 174.576 442.361 174.599 442.698 174.689C444.113 175.093 444.922 176.576 444.495 177.969C444.09 179.384 442.608 180.193 441.215 179.766C440.878 179.676 440.586 179.496 440.316 179.294L425.692 193.29C426.298 193.941 426.545 194.885 426.276 195.806C425.871 197.221 424.389 198.03 422.996 197.603C421.693 197.221 420.929 195.941 421.131 194.638L401.182 188.819C400.665 190.032 399.317 190.706 398.014 190.324C397.722 190.234 397.453 190.1 397.206 189.92L382.221 204.253C382.693 204.904 382.895 205.735 382.648 206.567C382.244 207.982 380.761 208.791 379.346 208.364C378.043 207.982 377.279 206.701 377.481 205.398L357.757 199.647C357.24 200.861 355.892 201.534 354.589 201.153C354.23 201.04 353.915 200.883 353.646 200.658L338.886 214.789C339.358 215.44 339.56 216.272 339.313 217.103C338.909 218.518 337.426 219.327 336.011 218.9C334.708 218.518 333.944 217.238 334.146 215.935L314.534 210.206C314.017 211.419 312.669 212.093 311.366 211.711C311.052 211.621 310.782 211.464 310.535 211.284L295.551 225.617C296.023 226.269 296.225 227.1 295.978 227.931C295.573 229.346 294.091 230.155 292.698 229.728C291.395 229.346 290.631 228.066 290.833 226.763L271.109 221.012C270.592 222.225 269.244 222.899 267.941 222.517C267.582 222.405 267.267 222.247 266.998 222.023L252.238 236.131C252.71 236.782 252.912 237.613 252.665 238.445C252.418 239.321 251.722 239.972 250.913 240.242L255.9 260.685C256.237 260.64 256.596 260.685 256.933 260.775C258.236 261.157 259.023 262.437 258.798 263.74L278.365 269.447C278.882 268.233 280.23 267.559 281.533 267.941C282.948 268.346 283.757 269.828 283.33 271.221C283.083 272.052 282.476 272.659 281.735 272.951L286.587 292.788C286.924 292.743 287.284 292.788 287.643 292.878C288.946 293.26 289.71 294.54 289.508 295.843L309.547 301.684C310.153 300.651 311.389 300.134 312.58 300.471C312.827 300.538 313.029 300.651 313.231 300.785L328.081 286.565C327.744 285.958 327.654 285.24 327.856 284.543C328.26 283.128 329.743 282.319 331.136 282.746C332.326 283.083 333.09 284.206 333.045 285.397L352.725 291.125C353.331 290.092 354.567 289.575 355.758 289.912C355.96 289.98 356.139 290.047 356.319 290.159L371.573 275.557C371.169 274.928 371.011 274.142 371.236 273.355C371.483 272.524 372.09 271.918 372.854 271.626L368.001 251.789C367.664 251.834 367.305 251.789 366.945 251.699C365.552 251.295 364.744 249.812 365.148 248.419C365.552 247.004 367.035 246.195 368.45 246.622C368.697 246.689 368.9 246.802 369.102 246.936L383.951 232.716C383.614 232.109 383.524 231.391 383.727 230.694C384.131 229.279 385.614 228.47 387.007 228.897C388.197 229.256 388.961 230.357 388.916 231.548L408.596 237.299C409.202 236.266 410.438 235.726 411.628 236.086C413.044 236.49 413.852 237.973 413.426 239.366C413.178 240.197 412.572 240.803 411.808 241.096L416.661 260.932C417.02 260.887 417.379 260.932 417.739 261.022C419.132 261.426 419.963 262.909 419.536 264.302C419.132 265.717 417.649 266.526 416.256 266.099C415.784 265.964 415.402 265.695 415.088 265.38L400.351 279.488C400.98 280.14 401.272 281.106 400.98 282.049C400.71 282.948 400.036 283.577 399.205 283.847L404.035 303.594C404.395 303.549 404.776 303.549 405.158 303.661C406.574 304.065 407.382 305.548 406.956 306.941C406.551 308.356 405.069 309.165 403.676 308.738C403.294 308.626 402.979 308.446 402.687 308.199L402.597 308.401ZM373.37 271.671C373.707 271.626 374.067 271.671 374.426 271.76C375.617 272.12 376.381 273.221 376.336 274.411L396.06 280.162C396.667 279.129 397.902 278.59 399.093 278.949C399.34 279.017 399.565 279.129 399.767 279.264L414.616 265.066C414.279 264.459 414.167 263.74 414.369 263.022C414.616 262.19 415.223 261.584 415.964 261.292L411.112 241.455C410.752 241.5 410.393 241.455 410.056 241.365C408.663 240.961 407.854 239.478 408.259 238.063L388.736 232.379C388.332 233.794 386.849 234.603 385.456 234.176C384.985 234.041 384.58 233.772 384.266 233.435L369.529 247.543C370.158 248.195 370.45 249.183 370.18 250.127C369.933 250.958 369.304 251.587 368.563 251.856L373.415 271.693L373.37 271.671ZM309.187 302.47L289.238 296.652C288.722 297.865 287.374 298.539 286.071 298.157C285.734 298.067 285.419 297.887 285.172 297.685L270.413 311.816C270.862 312.445 271.042 313.276 270.817 314.107C270.592 314.916 269.986 315.523 269.267 315.815L274.277 336.348C274.591 336.325 274.883 336.348 275.198 336.438C276.276 336.752 276.995 337.696 277.085 338.751L296.966 344.547C297.618 343.694 298.719 343.289 299.819 343.604C299.999 343.649 300.179 343.739 300.359 343.829L315.5 329.339C315.208 328.754 315.118 328.058 315.32 327.384C315.545 326.598 316.129 325.991 316.826 325.699L311.973 305.818C311.659 305.818 311.344 305.818 311.052 305.728C309.637 305.323 308.85 303.841 309.255 302.448L309.187 302.47ZM315.792 141.261L296.203 135.532C295.686 136.745 294.338 137.419 293.035 137.037C292.653 136.925 292.338 136.745 292.069 136.498L277.332 150.606C277.826 151.257 278.028 152.134 277.781 152.965C277.534 153.819 276.905 154.425 276.119 154.717L281.533 176.89L303.526 183.315C304.043 182.102 305.391 181.428 306.694 181.81C307.031 181.9 307.345 182.08 307.592 182.282L322.374 168.151C321.925 167.522 321.745 166.691 321.97 165.882C322.217 165.074 322.801 164.467 323.52 164.175L318.668 144.316C318.331 144.361 317.994 144.316 317.657 144.226C316.354 143.844 315.59 142.563 315.792 141.238V141.261ZM309.996 211.015C309.457 210.363 309.232 209.465 309.502 208.589C309.727 207.825 310.266 207.241 310.94 206.926L306.087 187.022C305.795 187.022 305.526 187.022 305.233 186.932C304.043 186.595 303.279 185.472 303.324 184.281L281.263 177.856L264.684 193.739C265.111 194.368 265.268 195.177 265.043 195.963C264.819 196.749 264.235 197.333 263.538 197.648L268.391 217.53C268.705 217.507 269.02 217.53 269.334 217.619C270.637 218.001 271.401 219.282 271.199 220.585L290.923 226.336C291.44 225.123 292.788 224.449 294.091 224.831C294.45 224.943 294.765 225.1 295.034 225.325L309.974 211.015H309.996ZM353.129 200.344C352.657 199.692 352.455 198.839 352.702 198.007C352.949 197.176 353.556 196.57 354.32 196.278L349.467 176.441C349.13 176.486 348.748 176.441 348.389 176.351C347.086 175.969 346.322 174.689 346.524 173.386L326.957 167.68C326.441 168.893 325.093 169.567 323.79 169.185C323.43 169.072 323.116 168.893 322.846 168.668L308.087 182.799C308.558 183.45 308.76 184.281 308.513 185.135C308.266 185.966 307.66 186.573 306.896 186.865L311.748 206.701C312.085 206.657 312.445 206.701 312.804 206.791C314.107 207.173 314.871 208.454 314.669 209.757L334.281 215.485C334.798 214.272 336.146 213.598 337.448 213.98C337.808 214.092 338.122 214.25 338.392 214.474L353.152 200.366L353.129 200.344ZM396.644 189.65C396.082 188.999 395.858 188.078 396.127 187.202C396.352 186.415 396.914 185.854 397.588 185.539L392.713 165.635C392.421 165.635 392.106 165.635 391.814 165.545C390.623 165.208 389.86 164.085 389.905 162.894L370.18 157.143C369.574 158.177 368.338 158.693 367.147 158.356C366.855 158.267 366.586 158.132 366.361 157.952L351.309 172.352C351.736 172.981 351.894 173.79 351.669 174.576C351.444 175.363 350.86 175.947 350.164 176.261L355.016 196.143C355.331 196.12 355.645 196.143 355.96 196.233C357.263 196.615 358.049 197.895 357.824 199.198L377.549 204.949C378.065 203.736 379.413 203.062 380.716 203.444C381.076 203.556 381.39 203.736 381.66 203.938L396.599 189.65H396.644ZM436.138 155.166C435.868 155.166 435.599 155.166 435.329 155.077C434.026 154.695 433.262 153.392 433.464 152.111L413.538 146.293C413.021 147.506 411.673 148.18 410.37 147.798C410.033 147.686 409.719 147.528 409.472 147.326L394.712 161.457C395.161 162.086 395.341 162.917 395.116 163.726C394.869 164.534 394.285 165.141 393.544 165.433L398.396 185.292C398.733 185.247 399.07 185.292 399.407 185.382C400.71 185.764 401.474 187.044 401.272 188.347L421.221 194.166C421.738 192.953 423.086 192.279 424.389 192.661C424.658 192.751 424.905 192.863 425.107 193.02L439.777 178.979C439.26 178.328 439.081 177.474 439.328 176.621C439.575 175.767 440.204 175.138 440.99 174.868L436.183 155.166H436.138ZM363.935 129.287C364.407 129.938 364.609 130.769 364.362 131.6C364.115 132.432 363.508 133.038 362.744 133.33L367.597 153.167C367.934 153.122 368.293 153.167 368.653 153.257C369.956 153.639 370.719 154.919 370.517 156.222L390.129 161.951C390.646 160.738 391.994 160.064 393.297 160.446C393.656 160.558 393.971 160.715 394.24 160.94L409 146.832C408.528 146.18 408.326 145.327 408.573 144.496C408.82 143.664 409.427 143.058 410.191 142.766L405.338 122.929C404.979 122.974 404.619 122.929 404.26 122.839C402.957 122.457 402.193 121.177 402.395 119.874L382.806 114.168C382.289 115.381 380.941 116.055 379.638 115.673C379.279 115.56 378.964 115.381 378.694 115.156L363.935 129.287ZM320.42 139.98C320.982 140.631 321.206 141.553 320.937 142.429C320.712 143.193 320.15 143.777 319.476 144.091L324.351 163.995C324.643 163.995 324.958 163.995 325.272 164.085C326.463 164.445 327.227 165.545 327.159 166.736L346.839 172.487C347.445 171.454 348.681 170.914 349.872 171.274C350.186 171.364 350.433 171.499 350.68 171.678L365.71 157.301C365.283 156.672 365.103 155.863 365.328 155.054C365.552 154.268 366.136 153.661 366.833 153.369L361.98 133.51C361.666 133.533 361.351 133.51 361.037 133.42C359.734 133.038 358.97 131.758 359.172 130.455L339.425 124.704C338.954 126.007 337.561 126.748 336.19 126.366C335.809 126.254 335.472 126.074 335.202 125.827L320.375 140.025L320.42 139.98ZM219.394 110.034C219.799 109.944 220.225 109.944 220.652 110.079C221.955 110.461 222.719 111.741 222.517 113.044L242.196 118.795C242.803 117.762 244.038 117.223 245.229 117.582C245.454 117.65 245.656 117.74 245.858 117.874L260.73 103.654C260.416 103.07 260.326 102.351 260.528 101.654C260.753 100.846 261.359 100.262 262.078 99.9471L257.091 79.5488C256.664 79.6387 256.215 79.6611 255.765 79.5263C254.462 79.1444 253.698 77.8639 253.901 76.5609L234.828 70.9896C234.311 72.2027 232.963 72.8542 231.66 72.4723C231.233 72.36 230.874 72.1128 230.582 71.8433L215.98 85.8166C216.429 86.468 216.609 87.2768 216.361 88.0856C216.092 89.0066 215.373 89.6581 214.519 89.8828L219.439 110.034H219.394ZM250.239 142.429C250.576 142.384 250.935 142.429 251.295 142.519C252.485 142.856 253.249 143.979 253.182 145.169L272.906 150.921C273.49 149.887 274.748 149.348 275.939 149.707C276.186 149.775 276.411 149.887 276.613 150.022L291.462 135.801C291.125 135.195 291.013 134.476 291.215 133.757C291.462 132.926 292.069 132.319 292.81 132.027L287.958 112.191C287.621 112.236 287.261 112.191 286.902 112.101C285.487 111.696 284.7 110.214 285.105 108.821L265.583 103.137C265.178 104.552 263.695 105.361 262.303 104.934C261.831 104.8 261.426 104.53 261.112 104.193L246.375 118.301C247.004 118.975 247.296 119.941 247.026 120.885C246.779 121.716 246.15 122.322 245.409 122.614L250.261 142.429H250.239ZM233.817 161.299C234.446 161.973 234.738 162.939 234.468 163.883C234.221 164.714 233.615 165.321 232.851 165.613L237.681 185.382C237.973 185.382 238.287 185.382 238.602 185.472C239.793 185.809 240.534 186.932 240.511 188.123L260.191 193.874C260.797 192.84 262.011 192.301 263.224 192.661C263.538 192.751 263.785 192.908 264.032 193.065L280.769 177.047L275.355 154.897C275.063 154.897 274.748 154.897 274.456 154.807C273.153 154.425 272.367 153.145 272.592 151.819L252.98 146.091C252.463 147.304 251.115 147.978 249.812 147.596C249.408 147.483 249.048 147.259 248.756 146.989L233.817 161.277V161.299ZM194.256 195.873C194.548 195.873 194.84 195.873 195.154 195.963C196.457 196.345 197.221 197.626 197.019 198.928L216.856 204.724C217.372 203.511 218.72 202.837 220.023 203.219C220.36 203.309 220.675 203.489 220.922 203.691L235.704 189.561C235.255 188.909 235.075 188.1 235.322 187.292C235.547 186.483 236.153 185.876 236.872 185.584L232.02 165.77C231.75 165.77 231.458 165.77 231.166 165.68C229.863 165.298 229.099 164.018 229.301 162.692L209.262 156.851C208.746 158.064 207.398 158.738 206.095 158.356C205.803 158.267 205.533 158.132 205.286 157.952L190.661 171.948C191.223 172.599 191.47 173.52 191.2 174.419C190.931 175.318 190.234 175.969 189.403 176.216L194.211 195.873H194.256ZM225.055 228.066C225.392 228.021 225.752 228.066 226.111 228.156C227.414 228.538 228.178 229.818 227.976 231.121L247.588 236.85C248.105 235.637 249.453 234.963 250.756 235.344C251.115 235.434 251.429 235.614 251.699 235.839L266.459 221.708C265.987 221.057 265.785 220.225 266.032 219.394C266.279 218.563 266.885 217.956 267.649 217.664L262.797 197.828C262.437 197.873 262.078 197.828 261.719 197.738C260.416 197.356 259.652 196.075 259.854 194.772L240.264 189.066C239.748 190.279 238.4 190.953 237.097 190.571C236.737 190.459 236.4 190.279 236.153 190.055L221.394 204.185C221.888 204.837 222.068 205.668 221.82 206.499C221.573 207.33 220.967 207.937 220.203 208.229L225.055 228.066ZM235.232 279.893C235.839 278.859 237.074 278.32 238.265 278.68C238.534 278.747 238.759 278.882 238.961 279.017L253.811 264.819C253.451 264.212 253.339 263.471 253.541 262.729C253.788 261.898 254.417 261.269 255.181 261L250.171 240.534C249.879 240.534 249.565 240.534 249.273 240.444C248.082 240.085 247.318 238.984 247.386 237.793L227.661 232.042C227.055 233.075 225.819 233.615 224.629 233.255C224.337 233.165 224.067 233.031 223.842 232.851L208.925 247.139C209.442 247.79 209.667 248.666 209.397 249.542C209.15 250.396 208.499 251.025 207.712 251.295L212.542 271.086C212.902 271.042 213.261 271.086 213.621 271.176C214.924 271.558 215.687 272.839 215.485 274.142L235.255 279.915L235.232 279.893ZM243.297 303.526C243.634 303.481 243.994 303.526 244.353 303.616C245.656 303.998 246.442 305.278 246.218 306.581L265.83 312.31C266.346 311.097 267.694 310.423 268.997 310.805C269.357 310.917 269.671 311.074 269.941 311.322L284.7 297.191C284.206 296.539 284.026 295.708 284.273 294.855C284.521 294.023 285.127 293.417 285.891 293.125L281.039 273.288C280.679 273.333 280.32 273.288 279.96 273.198C278.657 272.816 277.893 271.536 278.096 270.233L258.528 264.527C258.012 265.74 256.664 266.414 255.361 266.032C255.001 265.92 254.687 265.74 254.417 265.515L239.658 279.646C240.152 280.297 240.332 281.128 240.085 281.96C239.837 282.791 239.231 283.397 238.467 283.689L243.32 303.526H243.297ZM227.032 322.711C227.459 323.34 227.616 324.149 227.392 324.935C227.167 325.722 226.583 326.306 225.887 326.62L230.739 346.502C231.054 346.479 231.368 346.502 231.683 346.592C232.986 346.974 233.749 348.254 233.547 349.557L253.586 355.398C254.193 354.365 255.428 353.826 256.619 354.185C256.844 354.252 257.046 354.365 257.248 354.477L272.12 340.257C271.805 339.673 271.715 338.954 271.918 338.257C272.142 337.448 272.749 336.864 273.468 336.55L268.436 315.994C268.144 315.994 267.829 315.994 267.537 315.904C266.346 315.567 265.583 314.444 265.627 313.254L245.903 307.502C245.296 308.536 244.061 309.075 242.87 308.716C242.578 308.626 242.309 308.491 242.084 308.311L227.032 322.711ZM97.9702 263.358L117.627 269.087C118.144 267.874 119.492 267.2 120.795 267.582C121.154 267.694 121.469 267.852 121.738 268.076L136.498 253.946C136.026 253.294 135.846 252.463 136.071 251.632C136.318 250.8 136.925 250.194 137.666 249.902L132.701 229.616C132.477 229.616 132.23 229.593 132.005 229.526C130.882 229.189 130.14 228.178 130.118 227.055L110.281 221.281C109.652 222.202 108.484 222.674 107.361 222.337C107.069 222.247 106.777 222.113 106.552 221.933L89.6581 238.085L95.0722 260.281C95.4092 260.236 95.7461 260.281 96.0831 260.371C97.3861 260.753 98.1499 262.033 97.9477 263.336L97.9702 263.358ZM176.149 219.192C175.789 219.237 175.407 219.215 175.048 219.125C173.745 218.743 172.981 217.462 173.183 216.137L153.684 210.453C153.122 211.576 151.819 212.16 150.584 211.801C150.247 211.689 149.932 211.531 149.662 211.307L134.903 225.437C135.375 226.089 135.554 226.92 135.33 227.729C135.06 228.605 134.386 229.256 133.577 229.526L138.52 249.745C138.812 249.745 139.104 249.745 139.396 249.834C140.587 250.171 141.35 251.295 141.305 252.485L160.985 258.236C161.591 257.203 162.827 256.664 164.018 257.023C164.332 257.113 164.624 257.27 164.871 257.45L179.945 243.028C179.406 242.376 179.182 241.477 179.451 240.579C179.698 239.77 180.282 239.164 181.024 238.871L176.216 219.17L176.149 219.192ZM145.327 186.955C145.035 186.955 144.743 186.955 144.451 186.865C143.215 186.505 142.429 185.315 142.563 184.057L122.951 178.328C122.39 179.451 121.087 180.035 119.851 179.676C119.492 179.564 119.155 179.384 118.885 179.159L104.126 193.29C104.62 193.941 104.8 194.795 104.575 195.626C104.305 196.525 103.609 197.176 102.778 197.423L107.608 217.215C108.012 217.148 108.439 217.148 108.843 217.26C110.214 217.664 111 219.035 110.663 220.405L130.253 226.111C130.724 224.786 132.117 224.045 133.488 224.449C133.847 224.561 134.139 224.718 134.409 224.943L149.168 210.813C148.696 210.161 148.517 209.33 148.741 208.499C148.966 207.735 149.505 207.151 150.179 206.836L145.304 186.932L145.327 186.955ZM130.837 135.442C130.41 134.813 130.23 134.004 130.477 133.196C130.702 132.409 131.286 131.803 131.982 131.511L127.13 111.651C126.815 111.674 126.501 111.651 126.186 111.562C124.883 111.18 124.097 109.899 124.322 108.596L102.239 102.149L85.502 118.166C86.0412 118.818 86.2434 119.716 85.9963 120.593C85.7716 121.356 85.2325 121.918 84.581 122.233L89.4559 142.137C89.7255 142.137 90.0175 142.137 90.3096 142.227C91.5002 142.563 92.264 143.687 92.2191 144.877L112.191 150.696C112.707 149.483 114.055 148.809 115.358 149.191C115.628 149.258 115.875 149.393 116.1 149.55L130.837 135.442ZM170.443 101.07C170.083 101.115 169.724 101.07 169.364 100.981C168.061 100.599 167.298 99.3181 167.5 98.0151L147.933 92.309C147.416 93.5221 146.068 94.196 144.765 93.8141C144.406 93.7018 144.069 93.5221 143.799 93.2975L129.039 107.428C129.511 108.08 129.713 108.933 129.466 109.764C129.219 110.596 128.613 111.202 127.849 111.494L132.701 131.331C133.038 131.286 133.398 131.331 133.757 131.421C135.06 131.803 135.824 133.083 135.622 134.386L155.234 140.115C155.75 138.902 157.098 138.228 158.401 138.61C158.761 138.722 159.075 138.879 159.345 139.104L174.105 124.996C173.633 124.344 173.431 123.513 173.678 122.659C173.925 121.828 174.531 121.222 175.295 120.93L170.443 101.093V101.07ZM139.688 68.6757C139.418 68.6757 139.126 68.6757 138.857 68.5858C137.554 68.2039 136.79 66.9234 136.992 65.6204L117.088 59.8019C116.571 61.015 115.223 61.689 113.92 61.3071C113.583 61.2173 113.269 61.0375 113.022 60.8354L98.2622 74.9659C98.734 75.6174 98.8913 76.4261 98.6666 77.2574C98.4195 78.0661 97.8354 78.6726 97.094 78.9647L102.531 101.205L124.659 107.675C125.265 106.642 126.501 106.103 127.692 106.462C127.961 106.529 128.186 106.664 128.388 106.799L143.237 92.601C142.878 91.9945 142.766 91.2531 142.968 90.5342C143.215 89.703 143.844 89.074 144.608 88.782L139.688 68.6982V68.6757ZM71.1468 66.6763C71.4838 66.6313 71.8432 66.6763 72.2027 66.7661C73.5057 67.148 74.2695 68.4286 74.0673 69.7315L93.6793 75.4601C94.196 74.247 95.544 73.5731 96.8469 73.955C97.2064 74.0673 97.5209 74.2245 97.7905 74.4492L112.55 60.3411C112.078 59.6896 111.876 58.8584 112.123 58.0048C112.37 57.1736 112.977 56.567 113.741 56.2749L108.888 36.4382C108.551 36.4832 108.169 36.4382 107.81 36.3483C106.507 35.9664 105.743 34.6859 105.945 33.383L86.3782 27.6768C85.8615 28.89 84.5136 29.5639 83.2106 29.182C82.8512 29.0697 82.5366 28.9124 82.2671 28.6653L67.5075 42.7959C68.0017 43.4474 68.1814 44.301 67.9343 45.1322C67.6872 45.9634 67.0806 46.57 66.3168 46.862L71.1693 66.6988L71.1468 66.6763ZM58.6787 109.989C58.9932 109.989 59.2852 109.989 59.5998 110.079C60.7904 110.438 61.5542 111.539 61.5093 112.73L81.1887 118.481C81.7953 117.447 83.0309 116.908 84.2215 117.268C84.5136 117.358 84.7831 117.492 85.0303 117.672L101.767 101.654L96.2628 79.1444C95.9708 79.1444 95.6563 79.1444 95.3642 79.0546C94.1736 78.6951 93.4098 77.5943 93.4547 76.4037L73.7303 70.6526C73.1237 71.686 71.8882 72.2252 70.6975 71.8658C70.4055 71.7759 70.1359 71.6411 69.9112 71.4613L55.1067 85.6144C55.5111 86.2434 55.6684 87.0297 55.4437 87.8159C55.1741 88.6921 54.5002 89.3436 53.669 89.6132L58.6562 110.012L58.6787 109.989ZM46.0533 152.673C46.3903 152.628 46.7497 152.673 47.1091 152.763C48.4121 153.145 49.1759 154.425 48.9737 155.728L68.5858 161.434C69.1025 160.221 70.4504 159.547 71.7534 159.929C72.1128 160.041 72.4273 160.199 72.6969 160.423L87.4565 146.293C86.9847 145.641 86.7826 144.81 87.0297 143.956C87.2768 143.125 87.8833 142.519 88.6472 142.227L83.7947 122.39C83.4352 122.435 83.0758 122.39 82.7164 122.3C81.4134 121.918 80.6496 120.638 80.8518 119.335L61.2846 113.628C60.7679 114.842 59.42 115.515 58.1171 115.134C57.7576 115.021 57.4206 114.842 57.1511 114.617L42.3915 128.747C42.8857 129.399 43.0654 130.23 42.8183 131.061C42.5712 131.893 41.9646 132.522 41.2008 132.791L46.0533 152.605V152.673ZM76.8305 184.775C77.1226 184.775 77.4146 184.775 77.7291 184.865C79.0321 185.247 79.7959 186.528 79.5937 187.831L99.6551 193.672C100.217 192.548 101.52 191.942 102.778 192.301C103.025 192.369 103.249 192.503 103.452 192.638L118.301 178.418C117.964 177.811 117.852 177.092 118.054 176.351C118.279 175.587 118.84 175.003 119.514 174.689L114.549 154.335C114.325 154.335 114.1 154.313 113.875 154.245C112.685 153.886 111.921 152.785 111.988 151.594L92.0169 145.776C91.5002 146.989 90.1523 147.663 88.8493 147.281C88.5124 147.191 88.1979 147.012 87.9507 146.809L73.1912 160.94C73.6405 161.591 73.8202 162.4 73.5955 163.209C73.3484 164.018 72.7643 164.624 72.023 164.916L76.8754 184.731L76.8305 184.775ZM60.431 204.14C60.9701 204.792 61.1723 205.69 60.9252 206.567C60.7005 207.33 60.1614 207.892 59.5099 208.207L64.3848 228.133C64.6544 228.133 64.9464 228.133 65.2385 228.223C66.4292 228.56 67.193 229.683 67.148 230.874L89.1863 237.299L105.923 221.281C105.496 220.652 105.339 219.844 105.563 219.057C105.766 218.338 106.282 217.777 106.889 217.44L102.014 197.491C101.767 197.491 101.52 197.491 101.273 197.401C100.037 197.041 99.2507 195.851 99.3855 194.593L79.2792 188.729C78.6726 189.763 77.4371 190.302 76.2464 189.942C75.9993 189.875 75.7971 189.763 75.5724 189.628L60.431 204.118V204.14ZM20.9822 238.669C21.3192 238.624 21.6786 238.669 22.0381 238.759C23.341 239.141 24.1048 240.422 23.9027 241.725L43.5147 247.453C44.0314 246.24 45.3793 245.566 46.6823 245.948C47.0417 246.06 47.3563 246.218 47.6258 246.442L62.3854 232.312C61.9137 231.66 61.7115 230.807 61.9586 229.975C62.2057 229.144 62.8123 228.538 63.5761 228.245L58.7236 208.409C58.3642 208.454 58.0047 208.409 57.6453 208.319C56.3423 207.937 55.5785 206.657 55.7807 205.331L36.2136 199.625C35.6969 200.838 34.3489 201.512 33.046 201.13C32.6865 201.018 32.372 200.838 32.1024 200.613L17.3428 214.744C17.8146 215.395 18.0168 216.227 17.7697 217.08C17.5226 217.912 16.916 218.518 16.1522 218.81L21.0047 238.647L20.9822 238.669ZM8.44665 281.668C8.78363 281.623 9.14307 281.668 9.50251 281.757C10.8055 282.139 11.5693 283.42 11.3671 284.723L31.1364 290.496C31.6531 289.283 33.001 288.609 34.304 288.991C34.6185 289.081 34.8881 289.238 35.1352 289.418L49.9397 275.265C49.5129 274.636 49.3557 273.827 49.6028 273.063C49.8274 272.277 50.389 271.693 51.0855 271.401L46.1431 251.16C45.8511 251.16 45.5366 251.16 45.2221 251.07C44.0314 250.711 43.2676 249.61 43.335 248.419L23.6106 242.668C23.0265 243.701 21.7909 244.241 20.5778 243.881C20.2858 243.791 20.0162 243.657 19.7915 243.477L4.82976 257.81C5.30153 258.461 5.50372 259.315 5.2566 260.146C5.00949 260.977 4.40293 261.584 3.63911 261.876L8.49158 281.712L8.44665 281.668ZM76.9653 283.6C76.6283 283.644 76.3138 283.6 75.9768 283.51C74.6738 283.128 73.8876 281.847 74.1122 280.544L54.5226 274.838C54.0059 276.051 52.658 276.725 51.355 276.343C50.9731 276.231 50.6362 276.029 50.3441 275.782L35.607 289.89C36.1237 290.541 36.3259 291.417 36.0788 292.271C35.8316 293.125 35.1802 293.754 34.3939 294.023L39.2463 313.838C39.6058 313.793 39.9877 313.793 40.3696 313.905C41.6726 314.287 42.4364 315.567 42.2342 316.87L61.8463 322.599C62.363 321.386 63.7109 320.712 65.0138 321.094C65.3508 321.184 65.6429 321.363 65.89 321.543L80.672 307.413C80.2227 306.784 80.043 305.952 80.2901 305.144C80.5148 304.335 81.1213 303.751 81.8402 303.436L76.9878 283.577L76.9653 283.6ZM93.2076 264.437C92.7583 263.808 92.601 262.977 92.8257 262.168C93.0503 261.359 93.6344 260.775 94.3758 260.46L88.9392 238.198L66.9458 231.773C66.4291 232.986 65.0812 233.66 63.7783 233.278C63.4413 233.188 63.1268 233.008 62.8797 232.806L48.1201 246.936C48.5694 247.588 48.7491 248.397 48.5244 249.228C48.2773 250.037 47.6932 250.643 46.9519 250.935L51.8942 271.131C52.2312 271.109 52.5682 271.131 52.8827 271.221C54.0733 271.581 54.8371 272.682 54.7922 273.872L74.4717 279.623C75.0782 278.59 76.2913 278.051 77.5045 278.41C77.774 278.5 78.0212 278.612 78.2458 278.77L93.2525 264.414L93.2076 264.437ZM125.872 292.428C126.186 292.383 126.546 292.428 126.86 292.518C128.163 292.9 128.927 294.181 128.725 295.484L148.337 301.212C148.854 299.999 150.202 299.325 151.505 299.707C151.887 299.819 152.201 299.999 152.493 300.246L167.23 286.138C166.736 285.487 166.534 284.633 166.781 283.779C167.028 282.926 167.657 282.319 168.443 282.027L163.591 262.19C163.231 262.235 162.849 262.235 162.468 262.123C161.165 261.741 160.401 260.46 160.603 259.135L141.013 253.429C140.497 254.642 139.149 255.316 137.846 254.934C137.509 254.844 137.194 254.664 136.925 254.462L122.143 268.593C122.614 269.244 122.794 270.053 122.547 270.884C122.3 271.693 121.716 272.3 120.974 272.592L125.827 292.428H125.872ZM156.649 324.868C156.941 324.868 157.256 324.868 157.548 324.958C158.851 325.34 159.615 326.62 159.412 327.923L179.249 333.719C179.766 332.506 181.114 331.832 182.417 332.214C182.754 332.304 183.068 332.484 183.338 332.686L198.12 318.555C197.67 317.926 197.491 317.095 197.715 316.286C197.962 315.478 198.547 314.871 199.265 314.579L193.829 292.316L171.633 285.846C171.027 286.879 169.791 287.419 168.601 287.059C168.353 286.992 168.151 286.879 167.927 286.745L153.077 300.943C153.414 301.549 153.526 302.268 153.302 302.987C153.055 303.818 152.448 304.425 151.707 304.717L156.627 324.868H156.649ZM228.852 350.725C228.38 350.074 228.178 349.22 228.425 348.389C228.672 347.558 229.279 346.951 230.043 346.659L225.19 326.822C224.853 326.867 224.471 326.845 224.112 326.733C222.809 326.351 222.045 325.07 222.247 323.745L202.658 318.039C202.141 319.252 200.793 319.926 199.49 319.544C199.131 319.431 198.816 319.252 198.524 319.027L183.765 333.158C184.259 333.809 184.438 334.663 184.191 335.494C183.944 336.325 183.338 336.932 182.574 337.224L187.426 357.061C187.763 357.016 188.123 357.061 188.46 357.15C189.763 357.532 190.527 358.813 190.324 360.116L209.936 365.844C210.453 364.631 211.801 363.957 213.104 364.339C213.463 364.452 213.778 364.609 214.048 364.833L228.807 350.725H228.852ZM302.875 372.427C302.538 371.82 302.425 371.101 302.628 370.382C302.875 369.551 303.481 368.945 304.223 368.653L299.37 348.816C299.033 348.861 298.674 348.816 298.314 348.726C296.921 348.322 296.113 346.839 296.517 345.446L276.995 339.74C276.568 341.155 275.108 341.964 273.692 341.537C273.221 341.402 272.816 341.133 272.502 340.796L257.765 354.904C258.394 355.555 258.686 356.521 258.416 357.487C258.169 358.319 257.562 358.948 256.799 359.217L261.651 379.031C261.988 378.987 262.348 379.031 262.707 379.121C263.898 379.481 264.661 380.582 264.617 381.772L284.341 387.523C284.947 386.49 286.183 385.951 287.374 386.31C287.621 386.378 287.845 386.49 288.048 386.625L302.897 372.427H302.875ZM373.483 370.337C373.078 370.405 372.674 370.405 372.247 370.292C370.854 369.888 370.045 368.405 370.45 367.013L350.928 361.329C350.523 362.744 349.04 363.553 347.625 363.126C347.221 363.014 346.861 362.789 346.547 362.497L331.81 376.605C332.371 377.257 332.596 378.178 332.326 379.054C332.102 379.84 331.54 380.424 330.866 380.716L335.719 400.598C336.011 400.598 336.303 400.598 336.595 400.688C337.785 401.047 338.549 402.148 338.504 403.339L358.229 409.09C358.835 408.056 360.071 407.517 361.262 407.877C361.554 407.967 361.823 408.101 362.07 408.281L376.875 394.128C376.47 393.499 376.313 392.713 376.538 391.926C376.807 391.05 377.481 390.399 378.313 390.129L373.46 370.315L373.483 370.337ZM342.638 337.988C342.346 337.988 342.031 337.988 341.739 337.898C340.436 337.516 339.673 336.235 339.875 334.932L320.263 329.204C319.746 330.417 318.398 331.091 317.095 330.709C316.691 330.597 316.331 330.372 316.039 330.102L301.055 344.435C301.639 345.087 301.864 346.008 301.617 346.929C301.392 347.715 300.808 348.322 300.111 348.614L304.964 368.495C305.278 368.473 305.593 368.495 305.907 368.585C307.098 368.945 307.862 370.045 307.794 371.236L327.496 376.987C328.103 375.954 329.339 375.415 330.529 375.774C330.821 375.864 331.068 375.999 331.293 376.156L346.12 361.98C345.738 361.351 345.603 360.588 345.805 359.846C346.053 358.97 346.704 358.341 347.513 358.071L342.615 338.01L342.638 337.988ZM358.745 318.915C358.408 318.308 358.296 317.589 358.498 316.87C358.745 316.039 359.352 315.433 360.093 315.141L355.241 295.304C354.904 295.349 354.544 295.304 354.185 295.214C352.792 294.81 351.983 293.327 352.388 291.934L332.866 286.25C332.461 287.666 330.979 288.475 329.586 288.048C329.114 287.913 328.71 287.643 328.395 287.306L313.658 301.414C314.287 302.088 314.579 303.054 314.309 303.998C314.062 304.829 313.433 305.458 312.692 305.728L317.544 325.542C317.881 325.497 318.241 325.542 318.6 325.632C319.791 325.969 320.555 327.092 320.487 328.283L340.212 334.034C340.796 333 342.054 332.484 343.244 332.821C343.492 332.888 343.716 333 343.918 333.135L358.768 318.937L358.745 318.915ZM402.193 307.952C401.744 307.323 401.564 306.492 401.789 305.683C402.013 304.874 402.62 304.267 403.339 303.975L398.486 284.161C398.194 284.161 397.902 284.161 397.588 284.071C396.285 283.689 395.521 282.409 395.723 281.106L376.111 275.377C375.594 276.59 374.246 277.264 372.943 276.882C372.539 276.77 372.18 276.546 371.888 276.276L356.724 290.766C357.42 291.44 357.734 292.428 357.442 293.417C357.218 294.181 356.679 294.765 356.005 295.057L360.88 314.961C361.172 314.961 361.464 314.961 361.733 315.051C362.812 315.365 363.53 316.309 363.62 317.365L383.165 323.071C383.682 321.858 385.03 321.184 386.333 321.566C386.715 321.678 387.051 321.858 387.321 322.105L402.126 307.929L402.193 307.952Z" fill="#D8E9F1"/>
<path d="M205.87 290.923C205.735 290.788 205.6 290.654 205.443 290.496C205.308 290.362 205.174 290.227 205.016 290.07C179.608 264.594 168.376 247.588 169.836 246.105L85.5019 330.439C63.4186 352.523 63.4186 388.332 85.5019 410.415C107.585 432.498 143.395 432.498 165.478 410.415L249.812 326.081C248.352 327.541 231.323 316.309 205.848 290.901L205.87 290.923Z" fill="#336EA0"/>
<path style="mix-blend-mode:multiply" d="M249.831 326.081L165.497 410.415C143.414 432.498 107.627 432.498 85.5437 410.415C78.602 403.473 73.8394 395.161 71.2559 386.355C65.6396 367.17 70.4022 345.581 85.5437 330.439L169.878 246.105C168.844 247.139 174.079 255.833 186.075 269.716C191.175 275.624 197.487 282.454 205.058 290.047L205.889 290.878C218.627 303.571 229.253 312.737 236.869 318.533C244.485 324.329 249.112 326.778 249.854 326.036L249.831 326.081Z" fill="url(#paint0_linear_602_2561)"/>
<path d="M169.859 246.128C168.398 247.588 179.631 264.617 205.039 290.092C205.174 290.227 205.309 290.362 205.466 290.519C205.601 290.654 205.735 290.788 205.893 290.946C231.368 316.354 248.374 327.586 249.857 326.126C251.34 324.643 239.972 307.458 214.272 281.735C188.572 256.035 171.364 244.668 169.904 246.15L169.859 246.128Z" fill="url(#paint1_linear_602_2561)"/>
<path style="mix-blend-mode:multiply" d="M169.859 246.128C168.398 247.588 179.631 264.617 205.039 290.092C205.174 290.227 205.309 290.362 205.466 290.519C205.601 290.654 205.735 290.788 205.893 290.946C231.368 316.354 248.374 327.586 249.857 326.126C251.34 324.643 239.972 307.458 214.272 281.735C188.572 256.035 171.364 244.668 169.904 246.15L169.859 246.128Z" fill="url(#paint2_linear_602_2561)"/>
<path style="mix-blend-mode:color-dodge" d="M169.858 246.128C168.825 247.161 174.059 255.855 186.056 269.739L186.617 271.671L103.182 355.129L104.058 363.8C104.058 363.8 92.1289 390.062 71.2588 386.378C65.6425 367.192 70.4052 345.603 85.5467 330.462L169.881 246.128H169.858Z" fill="url(#paint3_linear_602_2561)"/>
<path d="M295.102 302.043C295.237 301.909 295.372 301.774 295.529 301.617C295.664 301.482 295.798 301.347 295.933 301.19C321.341 275.714 332.574 258.708 331.114 257.225L414.571 340.683C436.655 362.767 436.655 398.576 414.571 420.659C392.488 442.742 356.701 442.742 334.596 420.659L251.138 337.201C252.598 338.662 269.626 327.429 295.102 302.043Z" fill="#ED1651"/>
<path style="mix-blend-mode:multiply" d="M251.16 337.201L334.618 420.659C356.701 442.742 392.488 442.742 414.571 420.659C421.513 413.718 426.276 405.405 428.859 396.599C434.476 377.414 429.713 355.825 414.571 340.683L331.114 257.225C332.147 258.259 326.913 266.953 314.939 280.836C309.839 286.745 303.526 293.574 295.956 301.167L295.124 301.998C282.387 314.714 271.761 323.857 264.145 329.653C256.529 335.449 251.901 337.875 251.183 337.156L251.16 337.201Z" fill="url(#paint4_linear_602_2561)"/>
<path d="M331.315 255.271C332.821 256.776 321.296 274.254 295.192 300.426C295.057 300.561 294.922 300.718 294.765 300.853C294.63 301.01 294.473 301.145 294.338 301.28C268.189 327.384 250.688 338.909 249.183 337.404C247.655 335.876 259.337 318.218 285.734 291.822C312.13 265.425 329.81 253.766 331.315 255.271Z" fill="url(#paint5_linear_602_2561)"/>
<path style="mix-blend-mode:multiply" d="M331.316 255.271C332.821 256.776 321.296 274.254 295.192 300.426C295.057 300.561 294.922 300.718 294.765 300.853C294.63 301.01 294.473 301.145 294.338 301.28C268.189 327.384 250.688 338.909 249.183 337.404C247.655 335.876 259.337 318.218 285.734 291.822C312.13 265.425 329.81 253.766 331.316 255.271Z" fill="url(#paint6_linear_602_2561)"/>
<path style="mix-blend-mode:color-dodge" d="M331.113 257.248C332.147 258.281 326.913 266.975 314.939 280.859L314.354 282.791L396.936 365.373L396.06 374.044C396.06 374.044 407.989 400.306 428.859 396.622C434.475 377.436 429.713 355.847 414.571 340.706L331.113 257.248Z" fill="url(#paint7_linear_602_2561)"/>
<path d="M249.183 337.404L257.315 345.536C258.821 347.041 276.299 335.516 302.47 309.412L303.324 308.558C329.429 282.409 340.953 264.909 339.448 263.403L331.316 255.271C332.821 256.776 321.296 274.277 295.192 300.426L294.338 301.28C281.263 314.332 270.345 323.745 262.527 329.698C254.687 335.651 249.947 338.145 249.206 337.404H249.183Z" fill="#ED1651"/>
<path style="mix-blend-mode:multiply" d="M249.183 337.404L257.315 345.536C258.843 347.041 276.299 335.516 302.47 309.434L303.324 308.581C311.277 300.606 317.881 293.439 323.161 287.284C335.247 273.243 340.504 264.482 339.448 263.426L331.316 255.294C332.349 256.349 327.092 265.111 315.028 279.152C309.749 285.307 303.144 292.473 295.192 300.448L294.338 301.302C281.263 314.354 270.345 323.745 262.527 329.72C254.687 335.674 249.947 338.167 249.206 337.426L249.183 337.404Z" fill="url(#paint8_linear_602_2561)"/>
<path style="mix-blend-mode:color-dodge" d="M331.316 255.271C332.349 256.327 327.092 265.088 315.028 279.129L323.161 287.261C335.247 273.221 340.504 264.459 339.448 263.403L331.316 255.271Z" fill="url(#paint9_linear_602_2561)"/>
<path d="M294.169 170.162L290.238 169.039L289.092 172.948L282.263 170.971L283.408 167.04L279.477 165.894L281.476 159.064L285.408 160.21L286.531 156.279L293.36 158.278L292.237 162.187L296.146 163.333L294.169 170.162Z" fill="#608EC0"/>
<path d="M270.21 200.254C281.241 204.118 287.778 209.959 289.193 213.756L287.553 214.362C286.475 211.509 280.836 205.825 269.626 201.894C258.843 198.12 251.699 192.077 250.194 188.056L251.834 187.449C252.89 190.257 258.798 196.233 270.21 200.254Z" fill="#608EC0"/>
<path d="M271.289 199.67C270.929 199.535 270.57 199.4 270.188 199.266C270.008 199.198 269.806 199.131 269.626 199.063C270.21 198.008 270.727 196.974 271.176 195.963L267.02 197.513L264.774 196.435L272.165 193.672C272.479 192.886 272.771 192.099 273.041 191.358L262.729 195.199L260.82 194.009L273.737 189.201C273.962 188.437 274.119 187.696 274.277 187L259.202 192.616L257.495 191.358L274.658 184.955C274.748 184.214 274.816 183.518 274.838 182.889L256.012 189.92L254.867 188.437L274.816 181.001C274.748 180.215 274.614 179.564 274.434 179.069L276.074 178.463C277.422 182.08 276.456 190.145 271.356 199.692L271.289 199.67Z" fill="#608EC0"/>
<path d="M267.986 202.074C268.323 202.209 268.66 202.321 268.997 202.433C269.222 202.501 269.424 202.59 269.648 202.658C269.042 203.826 268.48 204.949 268.008 206.05L272.232 204.477L274.478 205.556L267.042 208.319C266.728 209.105 266.458 209.869 266.211 210.633L276.5 206.791L278.41 207.982L265.56 212.79C265.358 213.553 265.2 214.272 265.066 214.991L280.072 209.397L281.78 210.655L264.751 217.013C264.661 217.754 264.594 218.451 264.571 219.08L283.262 212.116L284.408 213.598L264.616 220.989C264.684 221.731 264.818 222.36 264.976 222.809L263.336 223.416C261.92 219.664 263.134 211.307 267.941 202.096L267.986 202.074Z" fill="#608EC0"/>
<path d="M232.986 244.061C232.11 243.859 231.503 243.32 231.615 242.825C231.728 242.331 232.514 242.084 233.39 242.286L242.421 244.286C241.815 244.78 241.208 245.274 240.646 245.768L232.986 244.083V244.061Z" fill="#012854"/>
<path d="M295.664 257.9L289.059 256.439C288.744 255.743 288.407 255.046 288.07 254.35L296.045 256.102C296.922 256.305 297.528 256.866 297.416 257.338C297.303 257.832 296.517 258.079 295.641 257.877L295.664 257.9Z" fill="url(#paint10_linear_602_2561)"/>
<path d="M251.991 252.418L258.866 246.083L262.101 262.774L271.626 251.475L275.04 255.743L280.971 254.665L289.059 256.439C292.788 264.729 294.113 272.929 288.879 277.961C272.794 293.305 260.865 269.199 260.865 269.199C260.865 269.199 239.883 286.048 231.773 265.358C229.122 258.596 233.772 251.722 240.646 245.768L247.88 247.363L252.014 252.441L251.991 252.418Z" fill="url(#paint11_linear_602_2561)"/>
<path d="M276.366 253.654L271.266 247.274L263.942 255.968L260.91 240.377L251.879 248.689L250.171 245.948L242.443 244.241C253.901 235.03 269.896 228.358 269.896 228.358C269.896 228.358 281.578 241.141 288.115 254.305L280.05 252.53L276.388 253.631L276.366 253.654Z" fill="url(#paint12_linear_602_2561)"/>
<path d="M317.454 146.81C317.162 148.27 316.398 149.505 315.387 150.449C315.298 150.539 315.208 150.629 315.095 150.696C313.568 151.954 311.501 152.538 309.412 152.111L290.474 148.225C286.789 147.461 284.408 143.867 285.172 140.182C285.936 136.498 289.53 134.117 293.214 134.881L312.153 138.767C313.119 138.969 313.995 139.374 314.758 139.913C316.87 141.395 318.016 144.046 317.477 146.72C317.477 146.72 317.477 146.742 317.477 146.765C317.477 146.765 317.477 146.787 317.477 146.81H317.454ZM286.565 140.474C285.958 143.395 287.845 146.248 290.766 146.832L309.704 150.718C310.917 150.966 312.085 150.786 313.119 150.292C313.186 150.269 313.253 150.224 313.321 150.179L299.842 147.416L301.751 138.093L292.922 136.273C290.024 135.667 287.149 137.554 286.565 140.474Z" fill="#608EC0"/>
<path d="M315.927 138.789C315.927 138.789 315.724 138.677 315.635 138.61C315.343 138.026 314.938 137.509 314.399 137.082L301.19 126.389C300.358 125.715 299.347 125.378 298.336 125.333C298.269 125.333 298.202 125.333 298.134 125.333L307.547 132.949L305.121 135.959L294.383 133.757C294.068 133.69 293.731 133.645 293.417 133.645C293.214 133.375 293.035 133.083 292.877 132.791C291.822 130.769 292.001 128.253 293.506 126.389C293.506 126.389 293.506 126.389 293.529 126.366H293.551C294.383 125.31 295.461 124.636 296.629 124.322C296.741 124.299 296.854 124.277 296.944 124.232C298.651 123.873 300.493 124.232 301.953 125.423L315.163 136.116C316.466 137.172 317.207 138.655 317.342 140.205C316.938 139.666 316.443 139.194 315.882 138.789H315.927Z" fill="#608EC0"/>
<path d="M202.478 147.888C205.308 143.485 211.015 142.069 215.53 144.473L204.792 161.165C200.703 158.042 199.625 152.269 202.455 147.865L202.478 147.888ZM209.105 144.922C206.836 145.394 204.904 146.72 203.669 148.652C202.5 150.471 202.074 152.673 202.478 154.83L203.601 154.627C203.264 152.763 203.601 150.853 204.635 149.281C205.713 147.618 207.375 146.473 209.352 146.046L209.128 144.922H209.105Z" fill="#608EC0"/>
<path d="M206.162 162.063L216.9 145.372C220.989 148.494 222.067 154.268 219.237 158.671C216.406 163.074 210.7 164.49 206.185 162.063H206.162Z" fill="url(#paint13_linear_602_2561)"/>
<path d="M221.416 158.986C224.202 153.841 222.831 147.416 218.204 143.867L217.934 142.406C222.315 141.957 226.381 144.922 227.19 149.326C227.976 153.594 225.437 157.683 221.416 158.986ZM225.999 149.55C225.662 147.731 224.629 146.113 223.124 144.99L222.539 145.776C223.865 146.742 224.741 148.135 225.033 149.73C225.348 151.392 224.966 153.1 223.977 154.515L224.786 155.077C225.932 153.459 226.358 151.482 225.999 149.573V149.55Z" fill="url(#paint14_linear_602_2561)"/>
<path d="M249.205 126.456L245.97 137.868C246.375 138.003 246.599 138.497 246.442 138.992C246.285 139.508 245.836 139.823 245.409 139.688L238.827 137.823C238.4 137.689 238.153 137.194 238.31 136.678C238.445 136.183 238.871 135.869 239.298 135.959L242.533 124.547L238.782 110.573C238.782 110.573 239.501 108.057 241.163 108.529L258.91 113.539C260.64 114.033 259.899 116.661 259.899 116.661L249.183 126.456H249.205ZM258.708 114.37L248.172 123.985L242.803 122.457L243.365 124.569L239.793 137.239L244.87 138.677L248.442 126.007L259.09 116.279C259.158 115.516 259.068 114.505 258.686 114.392L258.708 114.37Z" fill="#608EC0"/>
<path d="M215.699 212.149L212.352 211.25C209.005 210.352 206.983 206.87 207.882 203.522L210.712 192.941C211.072 191.593 212.464 190.807 213.812 191.166L224.483 194.019C225.831 194.379 226.64 195.772 226.28 197.12L223.45 207.701C222.551 211.048 219.069 213.07 215.722 212.171L215.699 212.149ZM225.404 196.873C225.629 195.996 225.112 195.098 224.236 194.873L213.565 192.02C212.689 191.795 211.79 192.312 211.566 193.188L211.364 193.997L224.034 197.389L221.54 206.735L208.87 203.342L208.758 203.769C207.994 206.667 209.701 209.633 212.599 210.419L215.947 211.318C218.845 212.081 221.832 210.374 222.596 207.476L225.427 196.917L225.404 196.873ZM219.474 203.006L220.395 199.568L218.418 199.052L218.934 197.075L215.497 196.154L214.958 198.131L212.981 197.614L212.06 201.051L214.037 201.568L213.52 203.545L216.957 204.466L217.474 202.489L219.451 203.028L219.474 203.006Z" fill="#608EC0"/>
<path d="M216.216 215.384L216.104 215.833L215.992 216.282C215.812 216.956 215.115 217.361 214.441 217.181L210.959 216.26C210.285 216.08 209.881 215.384 210.061 214.71L210.173 214.261L210.285 213.811L210.87 211.655L216.778 213.25L216.194 215.406L216.216 215.384Z" fill="#608EC0"/>
<path d="M234.199 185.764L227.189 175.183C225.954 173.341 226.471 170.802 228.335 169.589L235.659 164.737C237.501 163.501 239.029 162.513 239.051 162.535C239.051 162.558 240.534 162.962 242.308 163.456C244.083 163.928 246.599 163.636 247.88 162.805C249.16 161.951 250.104 161.12 249.969 160.94C249.857 160.76 250.261 160.266 250.913 159.839C251.519 159.435 252.979 160.513 254.17 162.266L255.136 161.636L256.057 163.007L257.135 162.288C257.45 162.086 257.607 161.884 257.63 161.704C257.697 161.322 257.203 160.715 256.709 160.154C255.99 159.3 255.181 158.312 255.361 157.143C255.473 156.335 256.057 155.593 257.091 154.897C257.944 154.335 258.753 154.178 259.472 154.425C260.011 154.627 260.46 155.032 260.842 155.616C261.628 156.784 262.168 158.649 262.797 160.828C263.516 163.321 264.324 166.152 265.672 168.196L264.729 168.825C263.291 166.646 262.437 163.726 261.696 161.142C260.91 158.446 260.191 155.885 259.09 155.504C258.73 155.369 258.281 155.504 257.72 155.84C256.978 156.335 256.551 156.829 256.484 157.301C256.372 157.975 257.001 158.716 257.585 159.435C258.214 160.199 258.888 160.985 258.753 161.884C258.686 162.4 258.349 162.85 257.764 163.254L256.686 163.973L257.585 165.343L256.641 165.972C257.787 167.769 258.214 169.522 257.607 169.926C256.978 170.353 256.349 170.533 256.237 170.353C256.124 170.173 254.979 170.712 253.698 171.566C252.418 172.42 251.182 174.599 250.935 176.419C250.688 178.238 250.486 179.766 250.508 179.788C250.508 179.788 249.026 180.822 247.161 182.057L239.837 186.91C237.973 188.145 235.457 187.629 234.243 185.786L234.199 185.764ZM249.407 179.159C249.475 178.598 249.587 177.699 249.789 176.261C250.081 174.105 251.519 171.633 253.069 170.6C253.833 170.106 254.462 169.724 254.979 169.499L254.17 168.264C250.553 169.072 248.891 173.79 248.891 173.79C248.891 173.79 247.992 177.317 248.037 178.508L245.117 180.44C245.117 180.44 244.061 179.968 242.69 177.901C241.32 175.834 241.522 173.498 239.792 170.87C238.04 168.241 234.985 166.534 234.985 166.534L228.964 170.533C227.616 171.409 227.257 173.229 228.155 174.576L235.165 185.157C236.041 186.505 237.86 186.865 239.208 185.966L239.837 185.539L234.715 177.834L236.67 176.531L241.792 184.236L246.532 181.091C247.947 180.148 248.936 179.474 249.43 179.137L249.407 179.159Z" fill="url(#paint15_linear_602_2561)"/>
<path d="M368.36 140.474C371.101 142.159 370.629 145.911 370.135 147.933C370.068 148.539 369.866 150.763 369.618 151.55C369.461 152.066 368.877 153.369 368.72 153.527C368.563 153.684 368.405 153.729 367.776 153.527C367.17 153.324 367.012 153.055 366.945 152.83C366.878 152.583 367.327 151.213 367.529 150.718C367.799 150 368.832 148.135 369.102 147.641C369.529 145.866 369.933 142.698 367.799 141.373C365.395 139.89 356.881 142.159 352.612 143.53L352.77 144.024L348.501 145.349L349.467 149.483L348.951 149.618C349.647 154.088 351.399 162.603 353.803 164.063C355.937 165.388 358.588 163.613 360.003 162.423C360.318 161.973 361.531 160.221 362.048 159.66C362.407 159.255 363.441 158.244 363.688 158.199C363.935 158.154 364.227 158.154 364.676 158.626C365.148 159.075 365.17 159.233 365.103 159.457C365.036 159.66 364.137 160.783 363.733 161.142C363.126 161.704 361.239 162.895 360.722 163.209C359.127 164.557 355.982 166.646 353.264 164.961C350.276 163.097 348.524 153.639 347.94 149.865L347.288 150.022L346.187 145.327L343.11 143.44L343.491 142.833C342.278 142.024 340.144 140.856 338.28 141.148C337.224 141.306 336.392 141.912 335.741 142.968C333.494 146.607 331.832 151.28 333.202 153.527C333.921 154.695 335.449 155.189 337.74 154.987C340.167 154.785 341.649 154.133 342.054 153.1C342.458 152.021 341.672 150.584 340.998 149.685C340.212 150.134 339.223 150.134 338.414 149.64C337.224 148.899 336.842 147.326 337.583 146.136C338.325 144.945 339.897 144.585 341.088 145.327C342.278 146.068 342.638 147.618 341.919 148.809C341.874 148.876 341.852 148.921 341.807 148.989C342.525 149.932 343.694 151.819 343.042 153.482C342.481 154.919 340.751 155.796 337.853 156.02C335.134 156.245 333.27 155.593 332.326 154.066C330.619 151.258 332.506 146.203 334.865 142.406C335.674 141.081 336.774 140.317 338.122 140.115C340.346 139.755 342.728 141.036 344.053 141.935L344.323 141.508L347.355 143.372L352.141 141.89L352.343 142.564C355.87 141.418 365.35 138.632 368.405 140.519L368.36 140.474ZM340.481 146.181C339.785 145.754 338.864 145.956 338.437 146.652C338.01 147.349 338.235 148.27 338.931 148.697C339.627 149.123 340.549 148.921 340.975 148.202C341.402 147.506 341.2 146.585 340.481 146.158V146.181Z" fill="#608EC0"/>
<path d="M324.037 200.995L321.902 199.67L317.477 196.907L318.488 195.267L321.768 197.311C322.397 197.176 323.138 196.705 323.475 195.424C324.216 190.954 322.262 186.236 318.173 183.697C312.759 180.328 305.593 181.967 302.223 187.404C298.853 192.818 300.493 199.984 305.907 203.354L309.434 201.445L311.142 204.612L316.084 201.939L318.106 205.691L313.164 208.386L310.58 213.868L306.267 216.204L304.559 213.037L299.617 215.71L297.595 211.958L302.538 209.285L300.83 206.117L303.436 204.702C297.752 200.344 296.202 192.279 300.066 186.079C303.863 180.013 311.546 177.811 317.904 180.732L320.936 175.879L318.106 174.105L318.623 170.937L329.428 177.677L326.822 179.541L323.992 177.766L320.959 182.619C325.115 186.011 326.912 191.425 325.811 196.502C325.654 197.468 325.519 199.288 326.373 200.187L328.754 201.669L327.743 203.309L323.992 200.973L324.037 200.995Z" fill="#608EC0"/>
<defs>
<linearGradient id="paint0_linear_602_2561" x1="107.7" y1="308.291" x2="188.365" y2="388.956" gradientUnits="userSpaceOnUse">
<stop stop-color="white"/>
<stop offset="0.73" stop-color="#949494"/>
<stop offset="0.86" stop-color="#959595"/>
<stop offset="0.91" stop-color="#9D9D9D"/>
<stop offset="0.94" stop-color="#A9A9A9"/>
<stop offset="0.98" stop-color="#BABABA"/>
<stop offset="1" stop-color="#CFCFCF"/>
</linearGradient>
<linearGradient id="paint1_linear_602_2561" x1="171.419" y1="247.689" x2="251.385" y2="327.655" gradientUnits="userSpaceOnUse">
<stop stop-color="#304F5E"/>
<stop offset="0.15" stop-color="#516E7C"/>
<stop offset="0.31" stop-color="#6B8794"/>
<stop offset="0.45" stop-color="#7B96A2"/>
<stop offset="0.56" stop-color="#819CA8"/>
<stop offset="0.64" stop-color="#7B97A3"/>
<stop offset="0.75" stop-color="#6C8895"/>
<stop offset="0.87" stop-color="#54717E"/>
<stop offset="0.99" stop-color="#31505F"/>
<stop offset="1" stop-color="#304F5E"/>
</linearGradient>
<linearGradient id="paint2_linear_602_2561" x1="205.334" y1="290.627" x2="214.118" y2="281.842" gradientUnits="userSpaceOnUse">
<stop stop-color="#BABABA"/>
<stop offset="1" stop-color="white"/>
</linearGradient>
<linearGradient id="paint3_linear_602_2561" x1="137.106" y1="332.802" x2="110.451" y2="306.147" gradientUnits="userSpaceOnUse">
<stop stop-color="#080808"/>
<stop offset="1" stop-color="#292929"/>
</linearGradient>
<linearGradient id="paint4_linear_602_2561" x1="392.803" y1="318.965" x2="312.137" y2="399.63" gradientUnits="userSpaceOnUse">
<stop stop-color="white"/>
<stop offset="0.73" stop-color="#949494"/>
<stop offset="0.86" stop-color="#959595"/>
<stop offset="0.91" stop-color="#9D9D9D"/>
<stop offset="0.94" stop-color="#A9A9A9"/>
<stop offset="0.98" stop-color="#BABABA"/>
<stop offset="1" stop-color="#CFCFCF"/>
</linearGradient>
<linearGradient id="paint5_linear_602_2561" x1="329.69" y1="256.87" x2="247.564" y2="338.996" gradientUnits="userSpaceOnUse">
<stop stop-color="#731515"/>
<stop offset="0.13" stop-color="#8D2B2B"/>
<stop offset="0.3" stop-color="#A74141"/>
<stop offset="0.44" stop-color="#B74E4E"/>
<stop offset="0.56" stop-color="#BD5353"/>
<stop offset="0.65" stop-color="#B74E4E"/>
<stop offset="0.76" stop-color="#A84242"/>
<stop offset="0.89" stop-color="#902D2D"/>
<stop offset="1" stop-color="#731515"/>
</linearGradient>
<linearGradient id="paint6_linear_602_2561" x1="294.886" y1="300.983" x2="285.847" y2="291.944" gradientUnits="userSpaceOnUse">
<stop stop-color="#E1E1E1"/>
<stop offset="1" stop-color="white"/>
</linearGradient>
<linearGradient id="paint7_linear_602_2561" x1="363.399" y1="343.476" x2="390.054" y2="316.821" gradientUnits="userSpaceOnUse">
<stop stop-color="#080808"/>
<stop offset="1" stop-color="#292929"/>
</linearGradient>
<linearGradient id="paint8_linear_602_2561" x1="337.633" y1="261.604" x2="254.776" y2="344.461" gradientUnits="userSpaceOnUse">
<stop stop-color="white"/>
<stop offset="0.73" stop-color="#949494"/>
<stop offset="0.86" stop-color="#959595"/>
<stop offset="0.91" stop-color="#9D9D9D"/>
<stop offset="0.94" stop-color="#A9A9A9"/>
<stop offset="0.98" stop-color="#BABABA"/>
<stop offset="1" stop-color="#CFCFCF"/>
</linearGradient>
<linearGradient id="paint9_linear_602_2561" x1="316.76" y1="281.714" x2="337.506" y2="260.968" gradientUnits="userSpaceOnUse">
<stop stop-color="#080808"/>
<stop offset="1" stop-color="#292929"/>
</linearGradient>
<linearGradient id="paint10_linear_602_2561" x1="292.766" y1="65.0366" x2="292.766" y2="282.364" gradientUnits="userSpaceOnUse">
<stop stop-color="#012854"/>
<stop offset="1" stop-color="#012854"/>
</linearGradient>
<linearGradient id="paint11_linear_602_2561" x1="261.674" y1="65.059" x2="261.674" y2="282.364" gradientUnits="userSpaceOnUse">
<stop stop-color="#608EC0"/>
<stop offset="1" stop-color="#608EC0"/>
</linearGradient>
<linearGradient id="paint12_linear_602_2561" x1="265.245" y1="65.0364" x2="265.245" y2="282.364" gradientUnits="userSpaceOnUse">
<stop stop-color="#608EC0"/>
<stop offset="1" stop-color="#608EC0"/>
</linearGradient>
<linearGradient id="paint13_linear_602_2561" x1="213.486" y1="65.0591" x2="213.486" y2="282.341" gradientUnits="userSpaceOnUse">
<stop stop-color="#345983"/>
<stop offset="1" stop-color="#012854"/>
</linearGradient>
<linearGradient id="paint14_linear_602_2561" x1="222.629" y1="65.0589" x2="222.629" y2="282.342" gradientUnits="userSpaceOnUse">
<stop stop-color="#012854"/>
<stop offset="1" stop-color="#012854" stop-opacity="0.44"/>
</linearGradient>
<linearGradient id="paint15_linear_602_2561" x1="246.083" y1="65.059" x2="246.083" y2="282.364" gradientUnits="userSpaceOnUse">
<stop stop-color="#608EC0"/>
<stop offset="1" stop-color="#608EC0"/>
</linearGradient>
</defs>
</svg>
