<svg width="60" height="60" viewBox="0 0 60 60" fill="none" xmlns="http://www.w3.org/2000/svg">
<g clip-path="url(#clip0_703_520)">
<path d="M24.851 47.0972C24.8013 47.1493 24.7419 47.1902 24.6764 47.2172C24.671 47.2229 24.671 47.2229 24.6655 47.2229C24.6042 47.2458 24.5396 47.2574 24.4746 47.2572C24.4072 47.2577 24.3405 47.2441 24.2782 47.2172C24.2036 47.1879 24.1364 47.1409 24.0819 47.08L23.7219 46.6857C23.6738 46.6355 23.6366 46.5751 23.6128 46.5086C23.5602 46.3797 23.5563 46.2347 23.6019 46.1029V46.0972C23.6073 46.0857 23.6073 46.08 23.6128 46.0686C23.6411 45.997 23.6839 45.9326 23.7382 45.88C23.7894 45.8275 23.8501 45.7863 23.9168 45.7587C23.9834 45.731 24.0546 45.7176 24.1262 45.7192C24.1978 45.7208 24.2685 45.7374 24.3339 45.7679C24.3993 45.7985 24.4583 45.8424 24.5073 45.8972L24.6382 46.04L24.7255 46.1372L24.8673 46.2914C24.9668 46.4008 25.0209 46.5469 25.0178 46.6978C25.0147 46.8488 24.9548 46.9924 24.851 47.0972Z" fill="#012854"/>
<path d="M17.2151 38.7714C17.1515 38.8373 17.0725 38.8846 16.986 38.9086C16.9697 38.9143 16.9588 38.9143 16.9424 38.92C16.9082 38.9267 16.8735 38.9305 16.8388 38.9314C16.8022 38.9305 16.7657 38.9267 16.7297 38.92C16.6983 38.9124 16.6673 38.9028 16.6369 38.8914C16.6151 38.88 16.5988 38.8686 16.5769 38.8572C16.5521 38.842 16.5284 38.8248 16.506 38.8057C16.4825 38.7936 16.462 38.776 16.446 38.7543L15.9279 38.1886C15.917 38.1767 15.9078 38.1632 15.9006 38.1486C15.8497 38.0841 15.8131 38.0087 15.7933 37.9277C15.7735 37.8467 15.771 37.7621 15.786 37.68C15.786 37.6686 15.7915 37.6629 15.7915 37.6514C15.8164 37.5483 15.8694 37.4549 15.9442 37.3829C16.0486 37.2787 16.188 37.222 16.3321 37.2252C16.4762 37.2284 16.6133 37.2913 16.7133 37.4L16.9151 37.6172L17.0188 37.7314L17.2315 37.9657C17.3309 38.075 17.385 38.2212 17.382 38.3721C17.3789 38.5231 17.3189 38.6667 17.2151 38.7714Z" fill="#012854"/>
<path d="M21.0283 42.9314C20.9786 42.9835 20.9192 43.0244 20.8537 43.0514C20.8428 43.0571 20.8319 43.0571 20.821 43.0628C20.7662 43.0806 20.7093 43.0902 20.6519 43.0914C20.5597 43.0925 20.4691 43.0668 20.3901 43.0171C20.3398 42.9933 20.2951 42.9581 20.2592 42.9142L19.8173 42.4285L19.7737 42.3828C19.7628 42.3656 19.7573 42.3485 19.7464 42.3314C19.7096 42.2646 19.6857 42.1908 19.6764 42.1143C19.667 42.0377 19.6723 41.96 19.6919 41.8856C19.6925 41.8813 19.6944 41.8773 19.6973 41.8742C19.7223 41.7819 19.7714 41.6988 19.8392 41.6342C19.9435 41.53 20.083 41.4734 20.2271 41.4766C20.3712 41.4798 20.5082 41.5426 20.6083 41.6514L20.821 41.8799V41.8856L21.0446 42.1256C21.1441 42.235 21.1982 42.3811 21.1951 42.532C21.192 42.683 21.132 42.8266 21.0283 42.9314Z" fill="#012854"/>
<path d="M46.8112 40.2C46.5124 40.7079 46.0943 41.127 45.5967 41.4171C45.0991 41.7073 44.5388 41.8588 43.9694 41.8571C43.7402 41.8582 43.5116 41.8333 43.2875 41.7829C43.3357 42.0176 43.3594 42.2571 43.3584 42.4971C43.3604 42.9551 43.2751 43.4088 43.1074 43.8317C42.9397 44.2547 42.6931 44.6382 42.3821 44.96C42.0738 45.2843 41.7075 45.5416 41.304 45.7171C40.9006 45.8926 40.468 45.9829 40.0312 45.9829C39.8038 45.9839 39.577 45.959 39.3548 45.9086C39.4555 46.4163 39.4469 46.9411 39.3296 47.4449C39.2124 47.9487 38.9895 48.4188 38.6771 48.821C38.3647 49.2233 37.9707 49.5475 37.5237 49.7702C37.0767 49.993 36.588 50.1085 36.093 50.1086C35.8507 50.1089 35.6091 50.0802 35.373 50.0229C35.4876 50.5362 35.4877 51.0703 35.3732 51.5837C35.2588 52.097 35.0328 52.5758 34.713 52.9828C34.3977 53.374 34.0053 53.6889 33.5628 53.9059C33.1202 54.123 32.638 54.2369 32.1494 54.24C31.7113 54.2395 31.2776 54.1484 30.8733 53.9719C30.4689 53.7954 30.1018 53.5369 29.793 53.2114L28.1294 51.4743L27.6275 50.9486L27.3494 50.6457C27.4134 50.5447 27.4682 50.4375 27.513 50.3257C27.6267 50.0395 27.686 49.7328 27.6875 49.4229C27.6872 49.1155 27.6288 48.8113 27.5155 48.5279C27.4022 48.2444 27.2363 47.9873 27.0275 47.7714C26.6055 47.3275 26.0328 47.0768 25.4348 47.0743C25.1762 47.0767 24.9198 47.125 24.6766 47.2171C24.6712 47.2229 24.6712 47.2229 24.6657 47.2229C24.5558 47.2637 24.4499 47.3153 24.3494 47.3771L24.2457 47.2629L24.0821 47.08L23.7221 46.6857L23.5803 46.5314L23.4657 46.4114C23.5179 46.312 23.5634 46.2089 23.6021 46.1029V46.0971C23.6075 46.0857 23.6075 46.08 23.613 46.0686C23.7497 45.6601 23.7758 45.22 23.6883 44.797C23.6008 44.374 23.4031 43.9847 23.1173 43.6722C22.8314 43.3597 22.4685 43.1363 22.0688 43.0267C21.6692 42.9171 21.2483 42.9257 20.853 43.0514C20.8421 43.0571 20.8312 43.0571 20.8203 43.0629C20.7145 43.0958 20.6121 43.1398 20.5148 43.1943L20.373 43.04L20.2584 42.9143L19.8166 42.4286L19.773 42.3829L19.7294 42.3429L19.5821 42.1771C19.6278 42.0841 19.6644 41.9865 19.6912 41.8857C19.6917 41.8814 19.6937 41.8774 19.6966 41.8743C19.8018 41.5239 19.8269 41.1525 19.7698 40.7901C19.7127 40.4277 19.5751 40.0844 19.3681 39.7879C19.161 39.4915 18.8904 39.2502 18.5779 39.0836C18.2655 38.9169 17.92 38.8296 17.5694 38.8286C17.3724 38.8295 17.1763 38.8563 16.9857 38.9086C16.9694 38.9143 16.9584 38.9143 16.9421 38.92C16.8547 38.9464 16.769 38.9788 16.6857 39.0171L16.5003 38.8171L16.4457 38.7543L15.9275 38.1886L15.8948 38.1543L15.6984 37.9429C15.7312 37.8571 15.7584 37.7714 15.7857 37.68C15.7857 37.6686 15.7912 37.6629 15.7912 37.6514V37.6457C15.8777 37.2983 15.8872 36.9348 15.819 36.583C15.7508 36.2312 15.6068 35.9003 15.3978 35.6158C15.1888 35.3313 14.9205 35.1006 14.6134 34.9413C14.3062 34.7821 13.9684 34.6986 13.6257 34.6971C13.4605 34.6964 13.2958 34.7155 13.1348 34.7543C13.0399 34.7769 12.9469 34.8075 12.8566 34.8457L12.6221 34.5886C12.5834 34.5492 12.552 34.5027 12.5294 34.4514C12.4366 34.2514 12.3494 34.0514 12.273 33.8571C12.1282 33.5074 12.0096 33.1463 11.9184 32.7771L11.7657 32.1771C11.5169 31.1691 11.0691 30.2269 10.4512 29.4114C10.6186 29.2908 10.7756 29.1551 10.9203 29.0057L22.7403 16.5943C22.9068 16.4232 23.055 16.2335 23.1821 16.0286C24.1973 16.7079 25.3325 17.1665 26.5203 17.3771C27.8076 17.6302 29.0224 18.1893 30.0712 19.0114C30.1404 19.0623 30.1968 19.1299 30.2358 19.2084C30.2747 19.287 30.295 19.3743 30.2948 19.4629C30.2954 19.5511 30.2766 19.6383 30.2397 19.7176C30.2028 19.7969 30.1488 19.8662 30.0821 19.92C30.0487 19.9476 30.0176 19.9781 29.9894 20.0114L24.6657 25.6114C24.3924 25.9021 24.2073 26.2709 24.1335 26.6715C24.0598 27.0721 24.1007 27.4866 24.2512 27.8629C24.3742 28.2088 24.5954 28.5071 24.885 28.7175C25.1746 28.9279 25.5187 29.0405 25.8712 29.04C26.5756 29.0473 27.2744 28.9069 27.9263 28.6273C28.5783 28.3476 29.1703 27.9342 29.6675 27.4114L32.7112 24.2457C32.8717 24.0725 33.0644 23.9355 33.2773 23.8431C33.4902 23.7508 33.7189 23.705 33.9494 23.7086C34.4137 23.709 34.8589 23.9022 35.1875 24.2457L46.1948 35.76C46.7554 36.3221 47.1206 37.0644 47.2323 37.8689C47.344 38.6734 47.1958 39.4939 46.8112 40.2Z" fill="#012854"/>
<path d="M21.9716 15.7885L10.1456 28.1999C9.7241 28.6397 9.15324 28.8863 8.55834 28.8856C8.26316 28.8868 7.97074 28.8262 7.69819 28.7075C7.42564 28.5887 7.17844 28.4142 6.97106 28.1942L4.48925 25.577C4.05862 25.1236 3.81734 24.5097 3.81836 23.8701C3.81939 23.2305 4.06263 22.6175 4.4947 22.1656L16.2274 9.86847C16.4419 9.64337 16.6968 9.4649 16.9773 9.3433C17.2579 9.22171 17.5586 9.15938 17.8622 9.15992C18.1658 9.16045 18.4663 9.22382 18.7465 9.3464C19.0266 9.46898 19.2809 9.64834 19.4947 9.87418L21.9711 12.4742C22.1789 12.6917 22.3438 12.95 22.4563 13.2343C22.5688 13.5187 22.6268 13.8234 22.6268 14.1312C22.6269 14.439 22.569 14.7438 22.4566 15.0281C22.3442 15.3125 22.1794 15.5709 21.9716 15.7885Z" fill="#012854"/>
<path d="M55.5114 25.0286L53.0296 27.6457C52.6093 28.0874 52.0388 28.3361 51.4435 28.3372C50.8481 28.3383 50.2768 28.0916 49.8551 27.6514L38.0296 15.2457C37.6104 14.8049 37.375 14.208 37.375 13.5857C37.375 12.9635 37.6104 12.3666 38.0296 11.9257L40.506 9.32573C40.72 9.10112 40.9742 8.92293 41.2541 8.80135C41.5339 8.67977 41.8339 8.61719 42.1369 8.61719C42.4398 8.61719 42.7398 8.67977 43.0197 8.80135C43.2995 8.92293 43.5537 9.10112 43.7678 9.32573L55.506 21.6172C55.9376 22.0693 56.1806 22.6822 56.1816 23.3217C56.1827 23.9612 55.9416 24.575 55.5114 25.0286Z" fill="#012854"/>
<path d="M45.5597 36.4743C45.4882 36.4745 45.4174 36.4598 45.3513 36.4312C45.2852 36.4026 45.2251 36.3605 45.1746 36.3075L34.4183 25.0532C34.2931 24.9232 34.124 24.8503 33.9478 24.8503C33.7716 24.8503 33.6025 24.9232 33.4774 25.0532L30.4365 28.2218C29.8431 28.8459 29.1374 29.3406 28.3603 29.6771C27.5832 30.0137 26.7501 30.1854 25.9092 30.1823H25.8546C25.2881 30.179 24.7356 29.9975 24.2688 29.6612C23.8019 29.325 23.4423 28.8496 23.2365 28.2966C23.0031 27.7113 22.9407 27.0667 23.0572 26.4443C23.1737 25.8218 23.4639 25.2496 23.891 24.8L29.1819 19.2429C30.4727 17.8814 32.1511 16.9965 33.9639 16.7218C35.5318 16.4638 36.9809 15.6909 38.1023 14.5143C38.1525 14.4603 38.2126 14.4173 38.2789 14.3879C38.3452 14.3584 38.4164 14.3431 38.4885 14.3429C38.5602 14.3429 38.6313 14.3578 38.6975 14.3866C38.7638 14.4154 38.824 14.4577 38.8746 14.5109L50.6957 26.9212C50.747 26.975 50.7874 27.039 50.8148 27.1093C50.8421 27.1797 50.8557 27.2551 50.8549 27.3311C50.8541 27.4071 50.8389 27.4821 50.81 27.5519C50.7812 27.6216 50.7394 27.6846 50.687 27.7372L50.3979 28.0275C49.4534 28.9753 48.7787 30.1793 48.449 31.5052L48.2854 32.1703C47.8494 33.7342 47.0444 35.1577 45.9448 36.3098C45.8422 36.4157 45.7038 36.4749 45.5597 36.4743ZM33.9475 23.7075C34.178 23.707 34.4064 23.7541 34.6194 23.8463C34.8325 23.9385 35.026 24.0739 35.189 24.2446L45.5455 35.0858C46.3222 34.1571 46.8961 33.0621 47.2272 31.8772L47.3908 31.2195C47.7582 29.7406 48.4975 28.392 49.5317 27.3143L38.4786 15.7109C37.2516 16.8417 35.7429 17.5837 34.1286 17.8503C32.5469 18.0892 31.0823 18.8605 29.9559 20.048L24.665 25.6069C24.3914 25.8977 24.2061 26.2669 24.1325 26.6679C24.059 27.0688 24.1004 27.4837 24.2515 27.86C24.3752 28.2059 24.5965 28.504 24.8861 28.7147C25.1756 28.9253 25.5196 29.0384 25.8721 29.0389C26.5764 29.0457 27.2749 28.9053 27.9268 28.6261C28.5787 28.3469 29.171 27.9343 29.669 27.4126L32.7088 24.2423C33.0378 23.8991 33.4833 23.7068 33.9475 23.7075Z" fill="#012854"/>
<path d="M15.6987 37.9429C15.5862 38.2272 15.4212 38.4855 15.2132 38.7029C15.4166 38.4896 15.6458 38.3051 15.895 38.1543L15.6987 37.9429ZM15.6987 37.9429C15.5862 38.2272 15.4212 38.4855 15.2132 38.7029C15.4166 38.4896 15.6458 38.3051 15.895 38.1543L15.6987 37.9429ZM15.9769 34.5714C15.5011 34.0737 14.8923 33.7389 14.231 33.6113C13.5697 33.4838 12.887 33.5695 12.2732 33.8571C11.8987 34.0269 11.5582 34.2693 11.2696 34.5714L10.1405 35.76C9.5145 36.3867 9.13663 37.2373 9.08205 38.1426C9.02748 39.0479 9.30019 39.9415 9.84595 40.6457C10.2414 41.1234 10.753 41.4797 11.3264 41.677C11.8999 41.8742 12.5136 41.9049 13.1023 41.7657C13.715 41.6284 14.2762 41.3067 14.7169 40.84L15.9878 39.5143C16.186 39.3055 16.3583 39.0712 16.5005 38.8171C16.5011 38.8128 16.503 38.8088 16.5059 38.8057C16.6574 38.5338 16.773 38.2416 16.8496 37.9371C16.8659 37.88 16.8769 37.8172 16.8878 37.76C16.8987 37.7029 16.9041 37.6629 16.915 37.6171C17.001 37.0679 16.9607 36.5051 16.7975 35.9754C16.6344 35.4458 16.353 34.9645 15.9769 34.5714ZM14.095 39.8857L14.0841 39.8914L14.0569 39.92L13.9532 40.0229C13.7348 40.2505 13.474 40.4287 13.1871 40.5464C12.9002 40.6641 12.5933 40.7187 12.2853 40.7069C11.9774 40.6951 11.6751 40.6172 11.3972 40.4779C11.1192 40.3386 10.8716 40.1409 10.6696 39.8971C10.3036 39.4121 10.1256 38.8004 10.1711 38.184C10.2166 37.5676 10.4822 36.9918 10.915 36.5714L12.0441 35.3829C12.2723 35.1411 12.5503 34.9574 12.8569 34.8457C12.9471 34.8075 13.0401 34.7769 13.135 34.7543C13.296 34.7156 13.4608 34.6964 13.6259 34.6971C13.9686 34.6986 14.3065 34.7821 14.6136 34.9413C14.9207 35.1006 15.1891 35.3313 15.398 35.6158C15.607 35.9003 15.7511 36.2312 15.8193 36.583C15.8874 36.9348 15.8779 37.2983 15.7914 37.6457V37.6514C15.7914 37.6629 15.7859 37.6686 15.7859 37.68C15.7587 37.7714 15.7314 37.8571 15.6987 37.9429C15.5862 38.2272 15.4212 38.4855 15.2132 38.7029L14.095 39.8857ZM15.6987 37.9429C15.5862 38.2272 15.4212 38.4855 15.2132 38.7029C15.4166 38.4896 15.6458 38.3051 15.895 38.1543L15.6987 37.9429ZM15.6987 37.9429C15.5862 38.2272 15.4212 38.4855 15.2132 38.7029C15.4166 38.4896 15.6458 38.3051 15.895 38.1543L15.6987 37.9429Z" fill="#012854"/>
<path d="M20.3733 43.0401L20.2587 42.9144L19.8169 42.4287L19.7733 42.3829L19.7296 42.3429L19.5824 42.1772C19.4889 42.4018 19.3577 42.6069 19.1951 42.7829C19.2015 42.7724 19.2111 42.7644 19.2224 42.7601C19.2911 42.7172 19.3676 42.6897 19.447 42.6792C19.5264 42.6687 19.607 42.6754 19.6837 42.699C19.7605 42.7226 19.8318 42.7625 19.8932 42.8163C19.9546 42.8701 20.0048 42.9365 20.0405 43.0115C20.0741 43.0983 20.0877 43.1922 20.0801 43.2856C20.0725 43.3789 20.044 43.469 19.9969 43.5487C20.1388 43.3933 20.265 43.2228 20.3733 43.0401ZM19.1405 42.8287L18.5133 43.4972L19.146 42.8287H19.1405ZM20.3733 43.0401L20.2587 42.9144L19.8169 42.4287L19.7733 42.3829L19.7296 42.3429L19.5824 42.1772C19.4889 42.4018 19.3577 42.6069 19.1951 42.7829C19.2015 42.7724 19.2111 42.7644 19.2224 42.7601C19.2911 42.7172 19.3676 42.6897 19.447 42.6792C19.5264 42.6687 19.607 42.6754 19.6837 42.699C19.7605 42.7226 19.8318 42.7625 19.8932 42.8163C19.9546 42.8701 20.0048 42.9365 20.0405 43.0115C20.0741 43.0983 20.0877 43.1922 20.0801 43.2856C20.0725 43.3789 20.044 43.469 19.9969 43.5487C20.1388 43.3933 20.265 43.2228 20.3733 43.0401ZM18.5133 43.4972L19.146 42.8287H19.1405L18.5133 43.4972ZM19.9205 38.7029C19.5452 38.3112 19.0863 38.0188 18.5817 37.8499C18.0771 37.681 17.5413 37.6404 17.0187 37.7315C16.9751 37.7429 16.9314 37.7487 16.8878 37.7601C16.8224 37.7715 16.7624 37.7887 16.6969 37.8058C16.4183 37.8832 16.1506 37.9985 15.9005 38.1487C15.9005 38.1494 15.9004 38.1501 15.9001 38.1508C15.8998 38.1515 15.8994 38.1522 15.8989 38.1527C15.8984 38.1532 15.8978 38.1536 15.8972 38.1539C15.8965 38.1542 15.8958 38.1544 15.8951 38.1544C15.6459 38.3052 15.4167 38.4896 15.2133 38.7029L14.0842 39.8915L14.0569 39.9201C13.5784 40.4283 13.2474 41.0683 13.1024 41.7658C12.982 42.289 12.9815 42.8345 13.101 43.3579C13.2204 43.8813 13.4564 44.3677 13.7896 44.7772C14.1023 45.1561 14.4893 45.4599 14.9241 45.6679C15.359 45.876 15.8316 45.9834 16.3096 45.9829C16.5502 45.9833 16.7899 45.9545 17.0242 45.8972C17.6443 45.7641 18.2123 45.4397 18.6551 44.9658L18.7642 44.8515L19.8769 43.6801C19.8919 43.6633 19.9083 43.648 19.926 43.6344C19.9314 43.6287 19.9369 43.6172 19.9478 43.6115C19.9628 43.5894 19.9792 43.5684 19.9969 43.5487C20.1388 43.3933 20.265 43.2228 20.3733 43.0401C20.38 43.0336 20.3855 43.0258 20.3896 43.0172C20.5388 42.7656 20.6561 42.4948 20.7387 42.2115C20.7714 42.1029 20.7987 41.9944 20.8205 41.8858V41.8801C20.9359 41.3139 20.914 40.7265 20.7567 40.1714C20.5995 39.6164 20.312 39.1115 19.9205 38.7029ZM19.1454 42.8287H19.1405L18.5127 43.4972L17.9891 44.0401C17.9727 44.0572 17.9618 44.0744 17.9454 44.0915L17.88 44.1601C17.6623 44.3863 17.4025 44.5633 17.1168 44.6799C16.8311 44.7965 16.5255 44.8504 16.2191 44.838C15.9127 44.8257 15.612 44.7475 15.3356 44.6083C15.0593 44.469 14.8132 44.2717 14.6127 44.0287C14.2524 43.5412 14.078 42.9309 14.1233 42.3162C14.1687 41.7016 14.4306 41.1265 14.8582 40.7029L15.9873 39.5144C16.1853 39.3006 16.4228 39.1314 16.6854 39.0172C16.7687 38.9789 16.8544 38.9465 16.9418 38.9201C16.9582 38.9144 16.9691 38.9144 16.9854 38.9087C17.176 38.8564 17.3721 38.8295 17.5691 38.8287C17.9197 38.8297 18.2652 38.917 18.5776 39.0837C18.8901 39.2503 19.1608 39.4916 19.3678 39.788C19.5749 40.0845 19.7125 40.4277 19.7695 40.7902C19.8266 41.1526 19.8015 41.524 19.6964 41.8744C19.6934 41.8775 19.6915 41.8815 19.6909 41.8858C19.6641 41.9866 19.6281 42.0842 19.5824 42.1772C19.4889 42.4018 19.3571 42.6069 19.1945 42.7829C19.1756 42.7948 19.1589 42.8103 19.1454 42.8287ZM19.1405 42.8287L18.5127 43.4972L19.1454 42.8287H19.1405ZM20.3727 43.0401L20.2587 42.9144L19.8169 42.4287L19.7733 42.3829L19.7291 42.3429L19.5824 42.1772C19.4889 42.4018 19.3571 42.6069 19.1945 42.7829C19.201 42.7724 19.2111 42.7644 19.2224 42.7601C19.2911 42.7172 19.3676 42.6897 19.447 42.6792C19.5264 42.6687 19.607 42.6754 19.6837 42.699C19.7605 42.7226 19.8318 42.7625 19.8932 42.8163C19.9546 42.8701 20.0048 42.9365 20.0405 43.0115C20.0741 43.0983 20.0877 43.1922 20.0801 43.2856C20.0725 43.3789 20.044 43.469 19.9969 43.5487C20.1388 43.3933 20.265 43.2228 20.3733 43.0401H20.3727ZM16.8382 38.9315C16.8016 38.9305 16.7651 38.9267 16.7291 38.9201C16.6975 38.9132 16.6665 38.9036 16.6364 38.8915C16.6145 38.8801 16.5982 38.8687 16.5764 38.8572C16.5515 38.842 16.5278 38.8249 16.5054 38.8058C16.5025 38.8089 16.5006 38.8129 16.5 38.8172L16.6854 39.0172C16.7687 38.9789 16.8544 38.9465 16.9418 38.9201C16.9078 38.9267 16.8728 38.9305 16.8382 38.9315ZM19.1405 42.8287L18.5127 43.4972L19.1454 42.8287H19.1405ZM20.3727 43.0401L20.2587 42.9144L19.8169 42.4287L19.7733 42.3829L19.7291 42.3429L19.5824 42.1772C19.4889 42.4018 19.3571 42.6069 19.1945 42.7829C19.201 42.7724 19.2111 42.7644 19.2224 42.7601C19.2911 42.7172 19.3676 42.6897 19.447 42.6792C19.5264 42.6687 19.607 42.6754 19.6837 42.699C19.7605 42.7226 19.8318 42.7625 19.8932 42.8163C19.9546 42.8701 20.0048 42.9365 20.0405 43.0115C20.0741 43.0983 20.0877 43.1922 20.0801 43.2856C20.0725 43.3789 20.044 43.469 19.9969 43.5487C20.1388 43.3933 20.265 43.2228 20.3733 43.0401H20.3727Z" fill="#012854"/>
<path d="M19.9967 43.5486C19.979 43.5684 19.9626 43.5894 19.9476 43.6115C19.9367 43.6172 19.9312 43.6286 19.9258 43.6343L18.7634 44.8515C18.66 44.9577 18.521 45.0172 18.3761 45.0172C18.2313 45.0172 18.0923 44.9577 17.9889 44.8515C17.8946 44.752 17.8381 44.62 17.8301 44.4801C17.8221 44.3402 17.863 44.202 17.9452 44.0915C17.9616 44.0743 17.9725 44.0572 17.9889 44.04L19.1398 42.8286H19.1452C19.1587 42.8103 19.1754 42.7948 19.1943 42.7829C19.2008 42.7724 19.2104 42.7643 19.2216 42.76C19.2904 42.7172 19.3668 42.6896 19.4462 42.6791C19.5256 42.6686 19.6062 42.6754 19.683 42.699C19.7598 42.7226 19.8311 42.7625 19.8925 42.8163C19.9539 42.87 20.004 42.9365 20.0398 43.0115C20.0735 43.0982 20.0871 43.1921 20.0796 43.2854C20.0722 43.3788 20.0437 43.469 19.9967 43.5486Z" fill="#012854"/>
<path d="M23.4659 46.4115C23.3648 46.6111 23.2361 46.794 23.084 46.9543C23.234 46.7944 23.4004 46.6526 23.5804 46.5315L23.4659 46.4115ZM20.6513 43.0915C20.5592 43.0926 20.4685 43.0669 20.3895 43.0172C20.3392 42.9934 20.2945 42.9582 20.2586 42.9143L20.3731 43.04C20.2648 43.2228 20.1387 43.3932 19.9968 43.5486C19.9791 43.5684 19.9627 43.5894 19.9477 43.6115C20.1103 43.4366 20.3027 43.2952 20.5149 43.1943C20.6123 43.1398 20.7146 43.0958 20.8204 43.0629C20.7656 43.0807 20.7087 43.0903 20.6513 43.0915ZM23.4659 46.4115C23.3648 46.6111 23.2361 46.794 23.084 46.9543C23.234 46.7944 23.4004 46.6526 23.5804 46.5315L23.4659 46.4115ZM19.9968 43.5486C19.9791 43.5684 19.9627 43.5894 19.9477 43.6115C20.1103 43.4366 20.3027 43.2952 20.5149 43.1943L20.3731 43.04C20.2648 43.2228 20.1387 43.3932 19.9968 43.5486ZM23.8531 42.8229C23.4631 42.4128 22.9812 42.1116 22.4514 41.9469C21.9216 41.7821 21.3609 41.7592 20.8204 41.88C20.7113 41.9029 20.6022 41.9372 20.4931 41.9715C20.2303 42.0572 19.9791 42.1782 19.7459 42.3315C19.7404 42.3315 19.7349 42.3372 19.7295 42.3429C19.5464 42.4622 19.3763 42.6021 19.2222 42.76C19.211 42.7643 19.2014 42.7723 19.1949 42.7829C19.176 42.7948 19.1594 42.8103 19.1459 42.8286L18.5131 43.4972L17.9895 44.04C17.9731 44.0572 17.9622 44.0743 17.9459 44.0915C17.4837 44.5914 17.1644 45.2169 17.024 45.8972C16.9092 46.4122 16.91 46.9481 17.0264 47.4627C17.1428 47.9774 17.3717 48.4567 17.6949 48.8629C18.006 49.254 18.3955 49.5684 18.8358 49.7837C19.2761 49.999 19.7563 50.1099 20.2422 50.1086C20.4864 50.109 20.7297 50.0802 20.9677 50.0229C21.5848 49.8779 22.1502 49.553 22.5986 49.0857L23.8586 47.7657V47.76C24.0041 47.6092 24.1339 47.4425 24.2459 47.2629C24.2581 47.2487 24.269 47.2334 24.2786 47.2172C24.4239 46.9898 24.5412 46.744 24.6277 46.4857C24.6686 46.3723 24.7014 46.2558 24.7259 46.1372C24.7401 46.0986 24.7493 46.0583 24.7531 46.0172C24.8682 45.4483 24.8461 44.8584 24.689 44.3007C24.5318 43.743 24.2446 43.2351 23.8531 42.8229ZM21.9386 48.1543L21.824 48.2743C21.6048 48.5051 21.3421 48.6855 21.0526 48.804C20.7631 48.9225 20.4533 48.9764 20.1428 48.9625C19.8323 48.9485 19.5279 48.8669 19.2492 48.7228C18.9705 48.5787 18.7235 48.3754 18.524 48.1257C18.168 47.6465 17.9954 47.0455 18.0398 46.44C18.0841 45.8345 18.3424 45.2681 18.764 44.8515L19.9259 43.6343C19.9313 43.6286 19.9368 43.6172 19.9477 43.6115C20.1103 43.4366 20.3027 43.2952 20.5149 43.1943C20.6123 43.1398 20.7146 43.0958 20.8204 43.0629C20.8313 43.0572 20.8422 43.0572 20.8531 43.0515C21.2485 42.9257 21.6693 42.9172 22.069 43.0268C22.4687 43.1363 22.8315 43.3598 23.1174 43.6723C23.4033 43.9847 23.6009 44.3741 23.6884 44.7971C23.7759 45.2201 23.7498 45.6602 23.6131 46.0686C23.6077 46.08 23.6077 46.0857 23.6022 46.0972V46.1029C23.5636 46.2089 23.518 46.312 23.4659 46.4115C23.3648 46.6111 23.2361 46.794 23.084 46.9543L21.9386 48.1543ZM20.6513 43.0915C20.5592 43.0926 20.4685 43.0669 20.3895 43.0172C20.3392 42.9934 20.2945 42.9582 20.2586 42.9143L20.3731 43.04C20.2648 43.2228 20.1387 43.3932 19.9968 43.5486C19.9791 43.5684 19.9627 43.5894 19.9477 43.6115C20.1103 43.4366 20.3027 43.2952 20.5149 43.1943C20.6123 43.1398 20.7146 43.0958 20.8204 43.0629C20.7656 43.0807 20.7087 43.0903 20.6513 43.0915ZM23.4659 46.4115C23.3648 46.6111 23.2361 46.794 23.084 46.9543C23.234 46.7944 23.4004 46.6526 23.5804 46.5315L23.4659 46.4115ZM20.6513 43.0915C20.5592 43.0926 20.4685 43.0669 20.3895 43.0172C20.3392 42.9934 20.2945 42.9582 20.2586 42.9143L20.3731 43.04C20.2648 43.2228 20.1387 43.3932 19.9968 43.5486C19.9791 43.5684 19.9627 43.5894 19.9477 43.6115C20.1103 43.4366 20.3027 43.2952 20.5149 43.1943C20.6123 43.1398 20.7146 43.0958 20.8204 43.0629C20.7656 43.0807 20.7087 43.0903 20.6513 43.0915ZM23.4659 46.4115C23.3648 46.6111 23.2361 46.794 23.084 46.9543C23.234 46.7944 23.4004 46.6526 23.5804 46.5315L23.4659 46.4115Z" fill="#012854"/>
<path d="M19.9967 43.5486C19.979 43.5684 19.9626 43.5894 19.9476 43.6115C19.9367 43.6172 19.9312 43.6286 19.9258 43.6343L18.7634 44.8515C18.66 44.9577 18.521 45.0172 18.3761 45.0172C18.2313 45.0172 18.0923 44.9577 17.9889 44.8515C17.8946 44.752 17.8381 44.62 17.8301 44.4801C17.8221 44.3402 17.863 44.202 17.9452 44.0915C17.9616 44.0743 17.9725 44.0572 17.9889 44.04L19.1398 42.8286H19.1452C19.1587 42.8103 19.1754 42.7948 19.1943 42.7829C19.2008 42.7724 19.2104 42.7643 19.2216 42.76C19.2904 42.7172 19.3668 42.6896 19.4462 42.6791C19.5256 42.6686 19.6062 42.6754 19.683 42.699C19.7598 42.7226 19.8311 42.7625 19.8925 42.8163C19.9539 42.87 20.004 42.9365 20.0398 43.0115C20.0735 43.0982 20.0871 43.1921 20.0796 43.2854C20.0722 43.3788 20.0437 43.469 19.9967 43.5486Z" fill="#012854"/>
<path d="M24.4749 47.2572C24.4076 47.2578 24.3408 47.2442 24.2786 47.2172C24.269 47.2334 24.258 47.2487 24.2459 47.2629L24.3495 47.3772C24.45 47.3154 24.556 47.2637 24.6659 47.2229C24.6046 47.2458 24.54 47.2574 24.4749 47.2572ZM24.4749 47.2572C24.4076 47.2578 24.3408 47.2442 24.2786 47.2172C24.269 47.2334 24.258 47.2487 24.2459 47.2629L24.3495 47.3772C24.45 47.3154 24.556 47.2637 24.6659 47.2229C24.6046 47.2458 24.54 47.2574 24.4749 47.2572ZM27.7913 46.9601C27.4017 46.5475 26.9189 46.2448 26.3878 46.08C25.8566 45.9152 25.2944 45.8936 24.7531 46.0172C24.7141 46.0193 24.6756 46.027 24.6386 46.0401C24.5217 46.0676 24.4068 46.1038 24.2949 46.1486C24.0528 46.235 23.8234 46.3561 23.6131 46.5086C23.6022 46.5086 23.5913 46.5201 23.5804 46.5315C23.4004 46.6526 23.2339 46.7945 23.084 46.9543L21.9386 48.1543C21.4489 48.6654 21.1115 49.3146 20.9677 50.0229C20.852 50.5384 20.8519 51.0749 20.9674 51.5905C21.0828 52.106 21.3107 52.5865 21.6331 52.9943C21.9292 53.3649 22.2957 53.6667 22.7093 53.8806C23.1229 54.0946 23.5745 54.2159 24.0353 54.2368C24.4961 54.2578 24.9561 54.178 25.3858 54.0024C25.8156 53.8269 26.2057 53.5594 26.5313 53.2172L27.7968 51.8915C27.9195 51.7633 28.0309 51.6237 28.1295 51.4743C28.2877 51.2549 28.4179 51.0148 28.5168 50.7601C28.7734 50.1235 28.8415 49.4207 28.7122 48.7431C28.5828 48.0655 28.262 47.4442 27.7913 46.9601ZM27.0222 51.0801L25.7622 52.4058C25.5432 52.6373 25.2803 52.8182 24.9905 52.9368C24.7007 53.0555 24.3904 53.1093 24.0796 53.0948C23.7687 53.0802 23.4643 52.9977 23.1857 52.8525C22.9071 52.7072 22.6607 52.5025 22.4622 52.2515C22.1065 51.7692 21.9351 51.1654 21.9815 50.5578C22.0279 49.9503 22.2887 49.3827 22.7131 48.9658L23.8586 47.7658C24.0018 47.6102 24.1675 47.479 24.3495 47.3772C24.45 47.3154 24.556 47.2637 24.6659 47.2229C24.6713 47.2229 24.6713 47.2229 24.6768 47.2172C24.92 47.1251 25.1763 47.0768 25.4349 47.0743C26.033 47.0769 26.6057 47.3276 27.0277 47.7715C27.2365 47.9873 27.4023 48.2445 27.5156 48.5279C27.6289 48.8114 27.6874 49.1156 27.6877 49.4229C27.6861 49.7329 27.6268 50.0396 27.5131 50.3258C27.3932 50.6056 27.227 50.8609 27.0222 51.0801ZM24.4749 47.2572C24.4076 47.2578 24.3408 47.2442 24.2786 47.2172C24.269 47.2334 24.258 47.2487 24.2459 47.2629L24.3495 47.3772C24.45 47.3154 24.556 47.2637 24.6659 47.2229C24.6046 47.2458 24.54 47.2574 24.4749 47.2572ZM24.4749 47.2572C24.4076 47.2578 24.3408 47.2442 24.2786 47.2172C24.269 47.2334 24.258 47.2487 24.2459 47.2629L24.3495 47.3772C24.45 47.3154 24.556 47.2637 24.6659 47.2229C24.6046 47.2458 24.54 47.2574 24.4749 47.2572Z" fill="#012854"/>
</g>
<defs>
<clipPath id="clip0_703_520">
<rect width="60" height="60" fill="white"/>
</clipPath>
</defs>
</svg>
