<svg width="51" height="50" viewBox="0 0 51 50" fill="none" xmlns="http://www.w3.org/2000/svg">
<g clip-path="url(#clip0_382_9946)">
<path d="M28.5171 6.82196L9.86458 25.466C9.44933 25.8898 9.08492 26.3389 8.77136 26.8135C6.48322 30.2372 6.84763 34.9152 9.86458 37.9321C10.6103 38.6779 11.4663 39.2711 12.3985 39.6949C12.3053 39.144 12.2544 38.5677 12.2544 37.9915C12.2544 32.2965 16.8815 27.6694 22.5764 27.6694C25.3392 27.6694 27.8561 28.7626 29.712 30.5423L40.9747 19.2881C44.4154 15.8474 44.4154 10.2542 40.9747 6.82196C37.5425 3.38128 31.9493 3.38976 28.5171 6.82196ZM39.7798 18.0847L31.051 26.8135L20.9832 16.7457L29.712 8.01688C32.4832 5.24569 37.0002 5.24569 39.7798 8.01688C41.1188 9.36433 41.8646 11.1525 41.8646 13.0508C41.8646 14.9576 41.1188 16.7457 39.7798 18.0847Z" fill="#ED1651"/>
<path d="M31.2026 37.9914C31.2026 33.2371 27.3297 29.3643 22.5755 29.3643C20.4992 29.3643 18.6009 30.1015 17.1094 31.3219L29.2365 43.4575C30.4653 41.966 31.2026 40.0592 31.2026 37.9914Z" fill="#ED1651"/>
<path d="M13.9492 37.9917C13.9492 42.7459 17.8221 46.6103 22.5763 46.6103C24.6441 46.6103 26.5509 45.873 28.0424 44.6527L15.9153 32.5171C14.6865 34.0086 13.9492 35.9154 13.9492 37.9917Z" fill="#ED1651"/>
</g>
<defs>
<clipPath id="clip0_382_9946">
<rect width="50.8475" height="50" fill="white"/>
</clipPath>
</defs>
</svg>
