<svg width="24" height="16" viewBox="0 0 24 16" fill="none" xmlns="http://www.w3.org/2000/svg">
<g id="flags / US">
<rect id="Mask" width="24" height="16" rx="2" fill="white"/>
<mask id="mask0_660_121" style="mask-type:luminance" maskUnits="userSpaceOnUse" x="0" y="0" width="24" height="16">
<rect id="Mask_2" width="24" height="16" rx="2" fill="white"/>
</mask>
<g mask="url(#mask0_660_121)">
<path id="Rectangle 511" fill-rule="evenodd" clip-rule="evenodd" d="M24 0H0V1.06667H24V0ZM24 2.13333H0V3.2H24V2.13333ZM0 4.26667H24V5.33333H0V4.26667ZM24 6.4H0V7.46667H24V6.4ZM0 8.53333H24V9.6H0V8.53333ZM24 10.6667H0V11.7333H24V10.6667ZM0 12.8H24V13.8667H0V12.8ZM24 14.9333H0V16H24V14.9333Z" fill="#D02F44"/>
<rect id="Rectangle 511_2" width="10.2857" height="7.46667" fill="#46467F"/>
<g id="Oval 43" filter="url(#filter0_d_660_121)">
<path fill-rule="evenodd" clip-rule="evenodd" d="M2.28544 1.59998C2.28544 1.89454 2.0296 2.13332 1.71401 2.13332C1.39842 2.13332 1.14258 1.89454 1.14258 1.59998C1.14258 1.30543 1.39842 1.06665 1.71401 1.06665C2.0296 1.06665 2.28544 1.30543 2.28544 1.59998ZM4.57115 1.59998C4.57115 1.89454 4.31531 2.13332 3.99972 2.13332C3.68413 2.13332 3.42829 1.89454 3.42829 1.59998C3.42829 1.30543 3.68413 1.06665 3.99972 1.06665C4.31531 1.06665 4.57115 1.30543 4.57115 1.59998ZM6.28544 2.13332C6.60103 2.13332 6.85686 1.89454 6.85686 1.59998C6.85686 1.30543 6.60103 1.06665 6.28544 1.06665C5.96984 1.06665 5.71401 1.30543 5.71401 1.59998C5.71401 1.89454 5.96984 2.13332 6.28544 2.13332ZM9.14258 1.59998C9.14258 1.89454 8.88674 2.13332 8.57115 2.13332C8.25556 2.13332 7.99972 1.89454 7.99972 1.59998C7.99972 1.30543 8.25556 1.06665 8.57115 1.06665C8.88674 1.06665 9.14258 1.30543 9.14258 1.59998ZM2.85686 3.19998C3.17246 3.19998 3.42829 2.9612 3.42829 2.66665C3.42829 2.3721 3.17246 2.13332 2.85686 2.13332C2.54127 2.13332 2.28544 2.3721 2.28544 2.66665C2.28544 2.9612 2.54127 3.19998 2.85686 3.19998ZM5.71401 2.66665C5.71401 2.9612 5.45817 3.19998 5.14258 3.19998C4.82699 3.19998 4.57115 2.9612 4.57115 2.66665C4.57115 2.3721 4.82699 2.13332 5.14258 2.13332C5.45817 2.13332 5.71401 2.3721 5.71401 2.66665ZM7.42829 3.19998C7.74388 3.19998 7.99972 2.9612 7.99972 2.66665C7.99972 2.3721 7.74388 2.13332 7.42829 2.13332C7.1127 2.13332 6.85686 2.3721 6.85686 2.66665C6.85686 2.9612 7.1127 3.19998 7.42829 3.19998ZM9.14258 3.73332C9.14258 4.02787 8.88674 4.26665 8.57115 4.26665C8.25556 4.26665 7.99972 4.02787 7.99972 3.73332C7.99972 3.43877 8.25556 3.19998 8.57115 3.19998C8.88674 3.19998 9.14258 3.43877 9.14258 3.73332ZM6.28544 4.26665C6.60103 4.26665 6.85686 4.02787 6.85686 3.73332C6.85686 3.43877 6.60103 3.19998 6.28544 3.19998C5.96984 3.19998 5.71401 3.43877 5.71401 3.73332C5.71401 4.02787 5.96984 4.26665 6.28544 4.26665ZM4.57115 3.73332C4.57115 4.02787 4.31531 4.26665 3.99972 4.26665C3.68413 4.26665 3.42829 4.02787 3.42829 3.73332C3.42829 3.43877 3.68413 3.19998 3.99972 3.19998C4.31531 3.19998 4.57115 3.43877 4.57115 3.73332ZM1.71401 4.26665C2.0296 4.26665 2.28544 4.02787 2.28544 3.73332C2.28544 3.43877 2.0296 3.19998 1.71401 3.19998C1.39842 3.19998 1.14258 3.43877 1.14258 3.73332C1.14258 4.02787 1.39842 4.26665 1.71401 4.26665ZM3.42829 4.79998C3.42829 5.09454 3.17246 5.33332 2.85686 5.33332C2.54127 5.33332 2.28544 5.09454 2.28544 4.79998C2.28544 4.50543 2.54127 4.26665 2.85686 4.26665C3.17246 4.26665 3.42829 4.50543 3.42829 4.79998ZM5.14258 5.33332C5.45817 5.33332 5.71401 5.09454 5.71401 4.79998C5.71401 4.50543 5.45817 4.26665 5.14258 4.26665C4.82699 4.26665 4.57115 4.50543 4.57115 4.79998C4.57115 5.09454 4.82699 5.33332 5.14258 5.33332ZM7.99972 4.79998C7.99972 5.09454 7.74388 5.33332 7.42829 5.33332C7.1127 5.33332 6.85686 5.09454 6.85686 4.79998C6.85686 4.50543 7.1127 4.26665 7.42829 4.26665C7.74388 4.26665 7.99972 4.50543 7.99972 4.79998ZM8.57115 6.39998C8.88674 6.39998 9.14258 6.1612 9.14258 5.86665C9.14258 5.5721 8.88674 5.33332 8.57115 5.33332C8.25556 5.33332 7.99972 5.5721 7.99972 5.86665C7.99972 6.1612 8.25556 6.39998 8.57115 6.39998ZM6.85686 5.86665C6.85686 6.1612 6.60103 6.39998 6.28544 6.39998C5.96984 6.39998 5.71401 6.1612 5.71401 5.86665C5.71401 5.5721 5.96984 5.33332 6.28544 5.33332C6.60103 5.33332 6.85686 5.5721 6.85686 5.86665ZM3.99972 6.39998C4.31531 6.39998 4.57115 6.1612 4.57115 5.86665C4.57115 5.5721 4.31531 5.33332 3.99972 5.33332C3.68413 5.33332 3.42829 5.5721 3.42829 5.86665C3.42829 6.1612 3.68413 6.39998 3.99972 6.39998ZM2.28544 5.86665C2.28544 6.1612 2.0296 6.39998 1.71401 6.39998C1.39842 6.39998 1.14258 6.1612 1.14258 5.86665C1.14258 5.5721 1.39842 5.33332 1.71401 5.33332C2.0296 5.33332 2.28544 5.5721 2.28544 5.86665Z" fill="url(#paint0_linear_660_121)"/>
</g>
</g>
</g>
<defs>
<filter id="filter0_d_660_121" x="1.14258" y="1.06665" width="8" height="6.33325" filterUnits="userSpaceOnUse" color-interpolation-filters="sRGB">
<feFlood flood-opacity="0" result="BackgroundImageFix"/>
<feColorMatrix in="SourceAlpha" type="matrix" values="0 0 0 0 0 0 0 0 0 0 0 0 0 0 0 0 0 0 127 0" result="hardAlpha"/>
<feOffset dy="1"/>
<feColorMatrix type="matrix" values="0 0 0 0 0 0 0 0 0 0 0 0 0 0 0 0 0 0 0.06 0"/>
<feBlend mode="normal" in2="BackgroundImageFix" result="effect1_dropShadow_660_121"/>
<feBlend mode="normal" in="SourceGraphic" in2="effect1_dropShadow_660_121" result="shape"/>
</filter>
<linearGradient id="paint0_linear_660_121" x1="1.14258" y1="1.06665" x2="1.14258" y2="6.39998" gradientUnits="userSpaceOnUse">
<stop stop-color="white"/>
<stop offset="1" stop-color="#F0F0F0"/>
</linearGradient>
</defs>
</svg>
