<svg width="244" height="44" viewBox="0 0 244 44" fill="none" xmlns="http://www.w3.org/2000/svg">
<path fill-rule="evenodd" clip-rule="evenodd" d="M18.4391 3.77542L19.0357 5.58928L20 8.00011H7.87211C7.53148 8.20121 7.21444 8.41814 6.92019 8.64867C4.34383 10.6671 3.15817 14.0084 3.43008 17.9479C3.43292 17.989 3.43592 18.0302 3.43907 18.0715H12.9609L11.3855 23.6817H4.76744C7.1238 29.6847 12.4272 35.4879 20.05 37.8251V40.9467C8.22121 37.7556 1.06313 27.2232 0.437199 18.1545C0.118334 13.5347 1.49263 9.08987 5.07003 6.28713C8.16628 3.86135 12.6438 2.8773 18.4391 3.77542Z" fill="#ED1651"/>
<path fill-rule="evenodd" clip-rule="evenodd" d="M26.049 3.74095L25.2841 6.02161L24.5002 8.00003H36.9198C37.2523 8.19498 37.5628 8.40447 37.8519 8.62654C40.4652 10.634 41.6735 13.9349 41.4273 17.8222H31.6494L33.2593 23.3517H40.1803C37.8389 29.48 32.3601 35.4735 24.4039 37.859V40.976C36.4553 37.7803 43.7718 27.2455 44.4123 18.1463C44.7389 13.5067 43.3292 9.05108 39.6794 6.24745C36.5256 3.82477 31.9636 2.84032 26.049 3.74095Z" fill="#ED1651"/>
<path fill-rule="evenodd" clip-rule="evenodd" d="M25.275 12H19.5535V17.8653L14 17.8653L14 23.6453H19.5535V29H25.275V23.6453H30.8278V17.8653L25.275 17.8653V12Z" fill="#034EA2"/>
<path d="M61.172 34.244C61.172 34.58 61.124 34.796 61.028 34.892C60.932 34.964 60.704 35 60.344 35H56.528C56.24 35 56.024 34.952 55.88 34.856C55.76 34.736 55.7 34.532 55.7 34.244V16.424C55.7 15.56 55.808 14.732 56.024 13.94C56.264 13.148 56.636 12.44 57.14 11.816C57.668 11.192 58.352 10.7 59.192 10.34C60.032 9.956 61.076 9.764 62.324 9.764H72.836C73.148 9.764 73.34 9.824 73.412 9.944C73.508 10.064 73.556 10.292 73.556 10.628V13.688C73.556 14 73.496 14.216 73.376 14.336C73.28 14.432 73.1 14.48 72.836 14.48H63.512C62.576 14.48 61.952 14.696 61.64 15.128C61.328 15.536 61.172 16.064 61.172 16.712V20.024H71.396C71.684 20.024 71.864 20.084 71.936 20.204C72.032 20.3 72.08 20.528 72.08 20.888V23.696C72.08 23.984 72.032 24.2 71.936 24.344C71.84 24.464 71.66 24.524 71.396 24.524H61.172V34.244ZM93.3926 29.744H85.1486L83.7446 34.316C83.6726 34.556 83.5646 34.736 83.4206 34.856C83.3006 34.952 83.0726 35 82.7366 35H78.5246C78.2606 35 78.0926 34.928 78.0206 34.784C77.9726 34.64 77.9726 34.472 78.0206 34.28L85.5086 11.708C85.6286 11.3 85.7606 10.976 85.9046 10.736C86.0726 10.472 86.2526 10.268 86.4446 10.124C86.6606 9.98 86.9006 9.884 87.1646 9.836C87.4526 9.764 87.7766 9.728 88.1366 9.728H90.2966C90.7046 9.728 91.0526 9.752 91.3406 9.8C91.6286 9.824 91.8806 9.908 92.0966 10.052C92.3126 10.196 92.4926 10.4 92.6366 10.664C92.8046 10.928 92.9606 11.276 93.1046 11.708L100.593 34.28C100.641 34.424 100.641 34.58 100.593 34.748C100.545 34.916 100.389 35 100.125 35H95.8406C95.5766 35 95.3486 34.976 95.1566 34.928C94.9886 34.856 94.8686 34.688 94.7966 34.424L93.3926 29.744ZM86.4446 25.28H92.0966L90.7286 20.708L89.3966 15.56H89.1806L87.8126 20.708L86.4446 25.28ZM124.722 23.192C125.538 23.552 126.114 24.068 126.45 24.74C126.786 25.388 127.062 26.132 127.278 26.972L129.114 34.172C129.162 34.316 129.15 34.496 129.078 34.712C129.03 34.904 128.862 35 128.574 35H124.794C124.53 35 124.254 34.976 123.966 34.928C123.678 34.856 123.474 34.64 123.354 34.28L121.77 27.908C121.458 26.732 120.99 25.916 120.366 25.46C119.766 25.004 118.926 24.776 117.846 24.776H114.354V34.244C114.354 34.58 114.306 34.796 114.21 34.892C114.114 34.964 113.886 35 113.526 35H109.674C109.386 35 109.17 34.952 109.026 34.856C108.906 34.736 108.846 34.532 108.846 34.244V11.96C108.846 11.24 108.99 10.7 109.278 10.34C109.566 9.956 110.142 9.764 111.006 9.764H119.826C122.442 9.764 124.458 10.424 125.874 11.744C127.314 13.064 128.034 14.84 128.034 17.072C128.034 18.296 127.746 19.448 127.17 20.528C126.594 21.608 125.766 22.436 124.686 23.012L124.722 23.192ZM122.418 17.432C122.418 17.12 122.37 16.796 122.274 16.46C122.178 16.124 122.01 15.824 121.77 15.56C121.554 15.272 121.242 15.044 120.834 14.876C120.426 14.684 119.91 14.588 119.286 14.588H114.39V20.348H119.178C120.234 20.348 121.038 20.084 121.59 19.556C122.142 19.004 122.418 18.296 122.418 17.432ZM158.704 20.492H158.488L157.012 23.84L154.024 30.464C153.76 31.088 153.484 31.508 153.196 31.724C152.932 31.94 152.524 32.048 151.972 32.048H149.992C149.392 32.048 148.972 31.94 148.732 31.724C148.516 31.508 148.264 31.088 147.976 30.464L145.744 25.784L143.512 20.924H143.296V34.28C143.296 34.616 143.236 34.82 143.116 34.892C142.996 34.964 142.78 35 142.468 35H138.796C138.532 35 138.328 34.964 138.184 34.892C138.04 34.82 137.968 34.616 137.968 34.28V12.284C137.968 11.372 138.136 10.724 138.472 10.34C138.832 9.956 139.432 9.764 140.272 9.764H142.36C143.032 9.764 143.524 9.896 143.836 10.16C144.172 10.4 144.484 10.832 144.772 11.456L148.696 20.24L150.928 25.352H151.072L153.52 19.736L157.192 11.528C157.48 10.88 157.792 10.424 158.128 10.16C158.488 9.896 159.052 9.764 159.82 9.764H161.584C162.352 9.764 162.928 9.932 163.312 10.268C163.696 10.58 163.888 11.192 163.888 12.104V34.28C163.888 34.616 163.828 34.82 163.708 34.892C163.588 34.964 163.372 35 163.06 35H159.496C159.232 35 159.028 34.964 158.884 34.892C158.764 34.82 158.704 34.616 158.704 34.28V20.492ZM180.309 34.244C180.309 34.556 180.249 34.76 180.129 34.856C180.033 34.952 179.805 35 179.445 35H175.629C175.341 35 175.125 34.952 174.981 34.856C174.861 34.736 174.801 34.532 174.801 34.244V10.556C174.801 10.268 174.861 10.076 174.981 9.98C175.125 9.86 175.341 9.8 175.629 9.8H179.445C179.805 9.8 180.033 9.848 180.129 9.944C180.249 10.04 180.309 10.244 180.309 10.556V34.244ZM196.656 19.34V34.244C196.656 34.556 196.596 34.76 196.476 34.856C196.38 34.952 196.164 35 195.828 35H192.048C191.76 35 191.544 34.952 191.4 34.856C191.28 34.736 191.22 34.532 191.22 34.244V12.284C191.22 11.348 191.388 10.7 191.724 10.34C192.06 9.956 192.672 9.764 193.56 9.764H195.072C195.432 9.764 195.732 9.788 195.972 9.836C196.236 9.86 196.464 9.932 196.656 10.052C196.848 10.172 197.028 10.34 197.196 10.556C197.364 10.772 197.556 11.048 197.772 11.384L203.892 20.708L206.988 25.568H207.168V10.52C207.168 10.232 207.216 10.04 207.312 9.944C207.432 9.824 207.66 9.764 207.996 9.764H211.776C212.328 9.764 212.604 10.016 212.604 10.52V32.516C212.604 33.284 212.448 33.896 212.136 34.352C211.824 34.784 211.2 35 210.264 35H208.752C208.392 35 208.08 34.988 207.816 34.964C207.576 34.916 207.36 34.832 207.168 34.712C206.976 34.592 206.796 34.436 206.628 34.244C206.46 34.028 206.268 33.752 206.052 33.416L200.292 24.704L196.836 19.34H196.656ZM236.225 29.744H227.981L226.577 34.316C226.505 34.556 226.397 34.736 226.253 34.856C226.133 34.952 225.905 35 225.569 35H221.357C221.093 35 220.925 34.928 220.853 34.784C220.805 34.64 220.805 34.472 220.853 34.28L228.341 11.708C228.461 11.3 228.593 10.976 228.737 10.736C228.905 10.472 229.085 10.268 229.277 10.124C229.493 9.98 229.733 9.884 229.997 9.836C230.285 9.764 230.609 9.728 230.969 9.728H233.129C233.537 9.728 233.885 9.752 234.173 9.8C234.461 9.824 234.713 9.908 234.929 10.052C235.145 10.196 235.325 10.4 235.469 10.664C235.637 10.928 235.793 11.276 235.937 11.708L243.425 34.28C243.473 34.424 243.473 34.58 243.425 34.748C243.377 34.916 243.221 35 242.957 35H238.673C238.409 35 238.181 34.976 237.989 34.928C237.821 34.856 237.701 34.688 237.629 34.424L236.225 29.744ZM229.277 25.28H234.929L233.561 20.708L232.229 15.56H232.013L230.645 20.708L229.277 25.28Z" fill="#034EA2"/>
</svg>
