<svg width="42" height="52" viewBox="0 0 42 52" fill="none" xmlns="http://www.w3.org/2000/svg">
<g clip-path="url(#clip0_341_9208)">
<path d="M42 20.6559C42 32.0638 25.3448 51.9959 21 51.9959C16.6552 51.9959 0 32.0638 0 20.6559C0 9.24796 9.40202 0 21 0C32.598 0 42 9.24796 42 20.6559Z" fill="#ED1651"/>
<g clip-path="url(#clip1_341_9208)">
<path fill-rule="evenodd" clip-rule="evenodd" d="M20.1069 14.9905L19.339 12.642C15.7653 12.1002 12.9755 12.7152 11.0308 14.2475C8.76831 16.0303 7.91067 18.8484 8.10992 21.7519C8.50145 27.4572 12.9816 34.0771 20.3868 36.0654V33.8038C15.7443 32.3541 12.516 28.785 11.0853 25.1011H14.8352L15.7523 21.8363H10.2959C10.2888 21.7583 10.2826 21.6806 10.2772 21.6032C10.1115 19.1876 10.8356 17.1672 12.3753 15.9539C13.8536 14.7891 16.3227 14.1792 20.1069 14.9905Z" fill="white"/>
<path fill-rule="evenodd" clip-rule="evenodd" d="M22.6157 14.9905L23.3837 12.642C26.9574 12.1002 29.7471 12.7152 31.6919 14.2475C33.9543 16.0303 34.812 18.8484 34.6127 21.7519C34.2212 27.4572 29.7411 34.0771 22.3358 36.0654V33.8038C26.9783 32.3541 30.2067 28.785 31.6374 25.1011H27.9078L26.9907 21.8363H32.4267C32.4339 21.7583 32.4401 21.6806 32.4454 21.6032C32.6112 19.1876 31.8871 17.1672 30.3473 15.9539C28.8691 14.7891 26.3999 14.1792 22.6157 14.9905Z" fill="white"/>
<path fill-rule="evenodd" clip-rule="evenodd" d="M23.0159 18.1523H19.7064V21.6902L16.4941 21.6902V25.1766H19.7064V28.4065H23.0159V25.1766H26.2279V21.6902L23.0159 21.6902V18.1523Z" fill="white"/>
</g>
</g>
<defs>
<clipPath id="clip0_341_9208">
<rect width="42" height="52" fill="white"/>
</clipPath>
<clipPath id="clip1_341_9208">
<rect width="26.7931" height="26.7931" fill="white" transform="translate(7.96484 11.5862)"/>
</clipPath>
</defs>
</svg>
